/* XPM */
static char * control_xpm[] = {
"32 32 4 1",
" 	c None",
".	c #000000",
"+	c #ECDEAE",
"@	c #FFFFFF",
"                                ",
"                                ",
"       ....          .....      ",
"     .......        .......     ",
"    .........      .........    ",
"   ..........      .........    ",
"   ..........      .........    ",
"  ...........      .........    ",
"  ...............  .........    ",
"  ..........................    ",
"  ......++++++...+++.......     ",
"   ....+++....+.+...++.....     ",
"     .+++.@@@@.+..@@.+....      ",
"     .++.@..@@.+.@@@.....       ",
"    ..++.......+......+.        ",
"    ...+...@.+++..@...+..       ",
"   ....++........+....+...      ",
"  ..+++++..+......+..++...      ",
"   .+++.++++......+++++++.      ",
"   .++..++++......++.++++.      ",
"   .+...+++++.....+++.+++.      ",
"    .++.++++++++++++...+.       ",
"    ..++...++++++++.++++.       ",
"      ..+++........++++.        ",
"        .++++++++++++..         ",
"         ............           ",
"                                ",
"                                ",
"                                ",
"                                ",
"                                ",
"                                "};
