/* XPM */
static char * add_act_xpm[] = {
"32 32 88 1",
" 	c None",
".	c #E7D4D4",
"+	c #ECBDBD",
"@	c #EEAFAF",
"#	c #F1A2A2",
"$	c #F1A1A0",
"%	c #F1A5A1",
"&	c #F1A7A3",
"*	c #F0A9A4",
"=	c #F0ABA4",
"-	c #EAC7C7",
";	c #EEB3B3",
">	c #F1A3A3",
",	c #F1A2A0",
"'	c #F0ACA5",
")	c #F0AFA6",
"!	c #EFB2A8",
"~	c #EFB5A9",
"{	c #EFB6A9",
"]	c #EFB7AA",
"^	c #EBC1C1",
"/	c #EFAEAE",
"(	c #F1A09F",
"_	c #F1A6A2",
":	c #EFB2A7",
"<	c #EEBCAC",
"[	c #EEC0AE",
"}	c #EDC3AF",
"|	c #EDC4B0",
"1	c #EDC5B0",
"2	c #EFACAC",
"3	c #F0A9A3",
"4	c #C6C9FF",
"5	c #8C91FF",
"6	c #EFB1A7",
"7	c #EFB9AB",
"8	c #EEC2AF",
"9	c #2C2F82",
"0	c #EEBBAC",
"a	c #ECCDB4",
"b	c #ECCEB5",
"c	c #EBD6B8",
"d	c #E8D0D0",
"e	c #000000",
"f	c #ECBEBE",
"g	c #E5D5A5",
"h	c #D3C49C",
"i	c #B7AA89",
"j	c #C6B895",
"k	c #A59A7C",
"l	c #E6DBDB",
"m	c #EFABAB",
"n	c #938A71",
"o	c #FFFFFF",
"p	c #E9CCCC",
"q	c #F0A4A4",
"r	c #C7B990",
"s	c #AA9E7A",
"t	c #9B9170",
"u	c #857C60",
"v	c #ECBABA",
"w	c #67604A",
"x	c #D3D3D3",
"y	c #EDB9B9",
"z	c #898989",
"A	c #A5A5A5",
"B	c #E0E0E0",
"C	c #EEBDAD",
"D	c #EAE6BE",
"E	c #E9E8C3",
"F	c #E8E8C7",
"G	c #E8E7CB",
"H	c #E8E7CD",
"I	c #E8E7CE",
"J	c #EBDEBB",
"K	c #ECD4B7",
"L	c #EBDABA",
"M	c #EAE0BC",
"N	c #EAE5BE",
"O	c #E9E8C0",
"P	c #E9E8C2",
"Q	c #EDCAB3",
"R	c #ECD0B5",
"S	c #EBDCBA",
"T	c #ECD5B7",
"U	c #EDC9B2",
"V	c #ECD2B6",
"W	c #F19F9F",
"      .+@#$%&*===*&%$#@+.       ",
"     -;>,&')!~{]{~!)'&,>;-      ",
"    ^/(_':]<[}|1|}[<]:'_(/^     ",
"   ^2$3){4444444444444444444445 ",
"  -/$*6784555945555555555555559 ",
" .;(360|a4545945555555555555559 ",
" +>_)7|bc4555945555555555555559 ",
"d@,'eeeeeeee9999999999999999999 ",
"f#&egghgigggeeeeeeeeeeeeeeeeee9 ",
";$eihjghkjgjhgeeeeeeeeeeeeeeee9l",
"meghkkjhikghnhgeeeeeeoeeeeeeee9p",
"qehjgnrrrnrgihgeeeeeeooeeeeeee9^",
"eggrrsnrttrtkjkkeoooooooeeeeee9+",
"ehrsrrssututrgigeooooooooeeeee9v",
"egtsrsuuuuwurtnheoxxxxxoooeeee9y",
"erssuuwwrrtrrtgheozAAzAxoeeeee9v",
"ettturrttrtttuhgeoBBBBzoeeeeee9+",
"euutwrssrssrwwhgeeeeeBoeeeeeee9^",
"meuurruurrtruugeeeeeeoeeeeeeee9p",
";$eeeuuustusuweeeeeeeeeeeeeeee9l",
"f#&:Cewwuwsueeeeeeeeeeeeeeeeee9 ",
"d@,'{8euwwee9999999999999999999 ",
" +>_)7|eeeDEFGHIHGFEDJcb|7)_>+  ",
" .;(360|aKLMNOPPPONMLKa|063(;.  ",
"  -/$*678QReeSJJJSeTRQ8e6*$/-   ",
"   ^2$3){CeUaeVVVReU|C{e3$2^    ",
"    ^/(_':e<[e|1eee<]eee(/^     ",
"     -;>,&eeee{e{~e)e&,e;-      ",
"      .+@#e%&e=e=*e%e#@e.       ",
"        dfemqeW(eeem;eee        ",
"          lp^+vyv+^pl           ",
"                                "};
