/* XPM */
static char * control_cut_xpm[] = {
"32 32 28 1",
" 	c None",
".	c #000000",
"+	c #BABABA",
"@	c #CCCCCC",
"#	c #D8D8D8",
"$	c #939393",
"%	c #A5A5A5",
"&	c #B2B2B2",
"*	c #487E93",
"=	c #58A9C9",
"-	c #78C8E8",
";	c #468EAA",
">	c #ADE7FF",
",	c #5FA4BF",
"'	c #424242",
")	c #3883A0",
"!	c #5B5B5B",
"~	c #5E5E5E",
"{	c #707070",
"]	c #878787",
"^	c #9B9B9B",
"/	c #C6C6C6",
"(	c #DBDBDB",
"_	c #EAEAEA",
":	c #FFFFFF",
"<	c #B5EAFF",
"[	c #47CAFF",
"}	c #89DDFF",
"                          .     ",
"                         ...    ",
"..................      ....    ",
".++++++++@@@######.       ...   ",
".$%&&&&&&&&&&&&&@##.       ..   ",
" .$$%%&....&&&&&++##.    .. . ..",
"  .$$..****...&&&+@##.   .......",
"   .$.**=--=**...&&+@#.   ..... ",
"    .**;->>-===**.&&+##.  ..... ",
"    ..*;=,;,>--==*.&+@@#.  ...  ",
"    .'.*;;)*;;,>==*.&&@@#. ...  ",
"    .'!.**))**);,-=*.&&@##. .   ",
"    .'!.**;;;)**);-=*.&&@@#~.   ",
"    .'!{.**,,;)***,==*.&&@##~   ",
"    .'!{].**==,;)*);=*.&&+@#.   ",
"    .'!{]^.**==,;;)*;**.&++#.   ",
"    .'!{]^&.***=->>==;*.&&+#.   ",
"    .'!{]^&/..**=->>=-**.&+@.   ",
"    .'!{]^&/(_..***--=**.&+@.   ",
"    .'!{]^&/(_:<..*****..&+@.   ",
"    .'!{]^&/(_:<[}.....'.&&@.   ",
"    .'!{]^&/(_:<[}:_/^{'.%&@.   ",
"    .'!{]^&/(_:<[}:_/^{'.%&@.   ",
"    .'!{]^&/(_:<[}:_/^{'.%&+.   ",
"    .'!{]^&/(_:<[}:_/^{'.$%+.   ",
"    .'!{]^&/(_:<[}:_/^.'.$&+.   ",
"    .'!{]^&/(_:<[}:_/^{..$&+.   ",
"    .'!{]^&/(_:<[}:_/^{'.$%+.   ",
"     ..{]^&/(_:<[}:_/^{'..$+.   ",
"      ....&/(_:<[}:.....  .+.   ",
"         ...........       ..   ",
"                            .   "};
