/* XPM */
static char * control_transfo_xpm[] = {
"32 32 23 1",
" 	c None",
".	c #000000",
"+	c #A38D47",
"@	c #C1A959",
"#	c #42ADFF",
"$	c #897531",
"%	c #D1B866",
"&	c #2483CC",
"*	c #83C4F7",
"=	c #3897E0",
"-	c #7F6A27",
";	c #72BFF9",
">	c #49A6ED",
",	c #A89146",
"'	c #BFAA67",
")	c #59B4F9",
"!	c #3899E2",
"~	c #876908",
"{	c #2481C9",
"]	c #7C7C7C",
"^	c #AAAAAA",
"/	c #C4C4C4",
"(	c #7C692B",
"                                ",
"                                ",
"                                ",
"      .                         ",
"     .+.        ..              ",
"     .@.        .#.             ",
"    .$%%.      .#&.             ",
"    .+@%.      .&*=.            ",
"   .$-+%%.    .#*;>=.           ",
"   .$,'@%.    .&*)#!&.          ",
"  .$,.~.%%.  .#**;##!&.         ",
"  ....$....  .&**;#>!{>.        ",
"     .+.    .#&*;)>!!{!#.       ",
"     .@.    ........{{!>#.      ",
"     .%.    .].     ......      ",
"     .%.   .^..                 ",
"     .%.   ./.                  ",
"     .%.   ./.                  ",
"     .%.  ./..                  ",
"     .%.  .^.        ..         ",
"     .%.  .].        .%..       ",
"     .%.  ...        .+%%..     ",
"     .@................+@%%..   ",
"     .++@%%%%%%%%%%@$(-$+@+@%.  ",
"     ..................-$$+..   ",
"                     .-$-..     ",
"                     .$..       ",
"                     ..         ",
"                                ",
"                                ",
"                                ",
"                                "};
