/* XPM */
static char * coronal_pm[] = {
/* width height ncolors cpp [x_hot y_hot] */
"32 32 9 1 0 0",
/* colors */
" 	c #B0B0B0B0C2C2",
".	s iconGray1	m white	c #dededededede",
"X	s iconGray3	m white	c #adadadadadad",
"o	s iconGray4	m white	c #949494949494",
"O	s iconColor1	m black	c black",
"+	s iconGray2	m white	c #bdbdbdbdbdbd",
"@	s iconGray7	m black	c #424242424242",
"#	s iconGray6	m black	c #636363636363",
"$	s iconGray8	m black	c #212121212121",
/* pixels */
"                                ",
"                                ",
"                                ",
"     .....................      ",
"     .XXXo.XXXXXXXXXXXXXXXo     ",
"     .X.Xo.XXXXXXXXXXXXXXXo     ",
"     .XXXo.XXXXXXXXXXXXXXXo     ",
"     .ooooooooooooooooooooo     ",
"     .OOOOOoXX+X+XXOOOOOOOo     ",
"     .OOOOX@@@o@#o@#XOOOOOo     ",
"     .OOOX##o#X##X.o#+OOOOo     ",
"     .OOOo$oX+.oo..Xo@oOOOo     ",
"     .OOOX#o...Xo...+#XOOOo     ",
"     .OOo#oX+.+#oX..o#oOOOo     ",
"     .OOX@@o+.o##oo+#@oOOOo     ",
"     .OO+@##o##o@##+#@@XOOo     ",
"     .OOo#oX.+o##o++Xo#oOOo     ",
"     .OOX$o+.+#OO#o.Xo$OOOo     ",
"     .OOOo@oooOOO@XXo@XOOOo     ",
"     .OOOOXO#OOOOOO#OXOOOOo     ",
"     .OOOOOOOOOOOOOOOOOOOOo     ",
"      ooooooooooooooooooooo     ",
"                                ",
"                                ",
"  OOO                         O ",
" O   O  OO  O O OO  O O  OO   O ",
" O     O  O OO O  O OO O   O  O ",
" O     O  O O  O  O O  O OOO  O ",
" O   O O  O O  O  O O  OO  O  O ",
"  OOO   OO  O   OO  O  O OO O O ",
"                                ",
"                                "};
