/* XPM */
static char * draw_xpm[] = {
"32 32 10 1",
" 	c None",
".	c #000000",
"+	c #737373",
"@	c #949494",
"#	c #636363",
"$	c #4B4B4B",
"%	c #424242",
"&	c #FFFFFF",
"*	c #BDBDBD",
"=	c #DEDEDE",
"                                ",
"                                ",
"                                ",
"                                ",
"                                ",
"                              ..",
"                             .+.",
"                            .+.@",
"                           .+#@ ",
"                         @.+#.  ",
"                         .+#.   ",
"                       .$++.    ",
"                      .+++.     ",
"                     .+++$      ",
"                    .++#%.      ",
"                   .++#%.       ",
"                  .#+#%.        ",
"                 .++#%.         ",
"                .++#%.          ",
"               @#+#%.           ",
"               .+#%.            ",
"            ....+..             ",
"          ..&&&&.               ",
"         .*=*==&.               ",
"        .#%#*@**.               ",
"      ..%#%#%%..                ",
"@@+++++.......                  ",
"@@@@@+++###+                    ",
"                                ",
"                                ",
"                                ",
"                                "};
