/* XPM */
static char * draw_pm[] = {
"32 32 9 1",
" 	c #B0B0B0B0C2C2",
".	c #000000000000",
"X	c #737373737373",
"o	c #949494949494",
"O	c #636363636363",
"+	c #424242424242",
"@	c #FFFFFFFFFFFF",
"#	c #BDBDBDBDBDBD",
"$	c #DEDEDEDEDEDE",
"                                ",
"                                ",
"                                ",
"                           ..   ",
"                          .X.o  ",
"                         .X.o   ",
"                        .XOo    ",
"                      o.XO.     ",
"                     o.XO.      ",
"                    .XXX.       ",
"                   .XXXOo       ",
"                  .XXXOO        ",
"                 .XXO+.         ",
"                .XXO+.          ",
"               oOXO+.           ",
"               .XO+.            ",
"            ....X..             ",
"          ..@@@@.               ",
"         .#$#$$@.               ",
"        .O+O#o##.               ",
"      ..+O+O++..                ",
"ooXXXXX.......                  ",
"oooooXXXOOOX                    ",
"                                ",
"       ...                      ",
"       .  . . . ..  .   .       ",
"       .  . ..    . . . .       ",
"       .  . .   ... . . .       ",
"       .  . .  .  .  . .        ",
"       ...  .   .. . . .        ",
"                                ",
"                                "};
