/* XPM */
static char *dynsegment[]={
"32 32 8 1",
"a c None",
"b c #404000",
"e c #e2e3e5",
"f c #e3e4e5",
"d c #e4e4e4",
"c c #e4e4e5",
". c #e5e5e5",
"# c #e6e6e6",
"................................",
"....##..........................",
"................aa..............",
"................abbb......a.....",
"...............aab..b.aa..a.....",
"#..............aab..babab.bbaa..",
".a...bbbbb.....aab.ab.b.b.b.b...",
".a..ab...bb....aabaab.bbbab.b...",
".a.abb....b....aabbb..aab.b.b...",
"ca.ab.....bb...aa..a....b.......",
".a.ab......b..........bba.......",
".aabb......b....................",
".aab.......bb...................",
".aab..aaa...b.....d.............",
"aaabaaaaaaaabb...c..ef..cfcc.caa",
"aabbaaaaaaaaabbaaaacf.........aa",
"aabaaaaaaaaaaabbaa..a.afafc...aa",
"aabaaaaaaaaaaaabbaaaaa.aaaaaaaaa",
"aabaaaaaaaaaaaaabbbaaaaaaaaaaaaa",
"aabaaaaaaaaaaaaaaabbbbbaaaaaaaaa",
"abaaaaaaaaaaaaaaaaaaaaabbbbbbbba",
"aaaaaaaaaaaaaaaaaaaaaaaaaaaaaaaa",
"aaabbbaaaaaaaaaaaaaaaaaaaaaaaaaa",
"aabaaaaaaaaaaaaaaaaaaaaaaaaaaaaa",
"aabaaaaabaaabbabbbbaaabaabbaabaa",
"aaabbaababababababababababababba",
"aaaaababbaababababababbaabababaa",
"aaaaababaaabbbababababaaabababaa",
"aabbbaaabbaaababababaabbabababaa",
"aaaaaaaaaaaaabaaaaaaaaaaaaaaaaaa",
"aaaaaaaaaaabbaaaaaaaaaaaaaaaaaaa",
"aaaaaaaaaaaaaaaaaaaaaaaaaaaaaaaa"};
