/* XPM */
static char * dynsegment_xpm[] = {
"32 32 128 2",
"  	c None",
". 	c #404000",
"+ 	c #434713",
"@ 	c #526A7A",
"# 	c #526976",
"$ 	c #50656B",
"% 	c #404104",
"& 	c #49553C",
"* 	c #587180",
"= 	c #5A7482",
"- 	c #5B7483",
"; 	c #576F7F",
"> 	c #404102",
", 	c #434715",
"' 	c #556C75",
") 	c #617A8A",
"! 	c #678090",
"~ 	c #68818F",
"{ 	c #6A838F",
"] 	c #434812",
"^ 	c #454E24",
"/ 	c #5A707A",
"( 	c #607A89",
"_ 	c #678190",
": 	c #698293",
"< 	c #667C89",
"[ 	c #4E5E55",
"} 	c #404001",
"| 	c #464C23",
"1 	c #566D73",
"2 	c #5E7685",
"3 	c #668090",
"4 	c #6A8496",
"5 	c #677F8F",
"6 	c #536560",
"7 	c #42440C",
"8 	c #404002",
"9 	c #4A573F",
"0 	c #607989",
"a 	c #678191",
"b 	c #6C8698",
"c 	c #668091",
"d 	c #5B717D",
"e 	c #464B1F",
"f 	c #414308",
"g 	c #4F625D",
"h 	c #5C737E",
"i 	c #657E90",
"j 	c #698395",
"k 	c #6C8699",
"l 	c #678292",
"m 	c #5E7688",
"n 	c #526565",
"o 	c #41430A",
"p 	c #444819",
"q 	c #546A70",
"r 	c #607A88",
"s 	c #678193",
"t 	c #6D889B",
"u 	c #5F7884",
"v 	c #59717E",
"w 	c #4A553A",
"x 	c #454A20",
"y 	c #546C77",
"z 	c #678192",
"A 	c #6E889B",
"B 	c #637C89",
"C 	c #617983",
"D 	c #53686B",
"E 	c #43491B",
"F 	c #42430B",
"G 	c #4B5947",
"H 	c #597282",
"I 	c #6A8595",
"J 	c #6E889A",
"K 	c #6B8495",
"L 	c #698193",
"M 	c #688192",
"N 	c #657D8B",
"O 	c #5A6F77",
"P 	c #4E5D53",
"Q 	c #414209",
"R 	c #42450E",
"S 	c #506462",
"T 	c #647E8F",
"U 	c #6D889A",
"V 	c #6D879A",
"W 	c #6D8596",
"X 	c #6B8595",
"Y 	c #667F8D",
"Z 	c #5F757D",
"` 	c #556967",
" .	c #4C5A4B",
"..	c #41440E",
"+.	c #556B77",
"@.	c #6B8597",
"#.	c #6E899C",
"$.	c #6F8A9C",
"%.	c #6E899B",
"&.	c #698394",
"*.	c #627A88",
"=.	c #5C727A",
"-.	c #536662",
";.	c #4D5C4D",
">.	c #444918",
",.	c #444817",
"'.	c #49543B",
").	c #637A8B",
"!.	c #647D8D",
"~.	c #5F7783",
"{.	c #566E75",
"].	c #4D5E57",
"^.	c #485337",
"/.	c #44491A",
"(.	c #404207",
"_.	c #404103",
":.	c #434716",
"<.	c #668191",
"[.	c #5B737F",
"}.	c #556D76",
"|.	c #4F6567",
"1.	c #516569",
"2.	c #51666C",
"3.	c #51676F",
"4.	c #506469",
"5.	c #464F2C",
"6.	c #41440B",
"7.	c #404105",
"                                                                ",
"                                                                ",
"                                                                ",
"                                  . . .                         ",
"                                  .     .                       ",
"                                  .     .   .   .   . .         ",
"          . . . . .               .     .   .   .   .   .       ",
"          + @ # $ . .             .     .   . . .   .   .       ",
"        % & * = - ; >             . . .         .   .   .       ",
"        , ' ) ! ~ { ] .                         .               ",
"        ^ / ( _ : < [ .                     . .                 ",
"      } | 1 2 3 4 5 6 7                                         ",
"      8 9 1 0 a b c d e }                                       ",
"      f g h i j k l m n o                                       ",
"      p q r s b t j u v w f                                     ",
"    % x y z 4 A b 3 B C D E }                                   ",
"    F G H I b J K L M N O P Q .                                 ",
"    R S T U J V b W X Y Z `  ...}                               ",
"    | +.@.#.$.$.%.b &.c *.=.-.;.>.> .                           ",
"  ,.'.).                &.!.~.{.].^./.R (._.}                   ",
"  :.                        U <.[.}.|.1.2.3.4.5.6.7.8 . . . .   ",
"                                                                ",
"      . . .                                                     ",
"    .                                                           ",
"    .           .       . .   . . . .       .     . .     .     ",
"      . .     .   .   .   .   .   .   .   .   .   .   .   . .   ",
"          .   . .     .   .   .   .   .   . .     .   .   .     ",
"          .   .       . . .   .   .   .   .       .   .   .     ",
"    . . .       . .       .   .   .   .     . .   .   .   .     ",
"                          .                                     ",
"                      . .                                       ",
"                                                                "};
