/* XPM */
static char * fusion_act_xpm[] = {
"32 32 144 2",
"  	c None",
". 	c #E7D4D4",
"+ 	c #ECBDBD",
"@ 	c #EEAFAF",
"# 	c #F1A2A2",
"$ 	c #F1A1A0",
"% 	c #F1A5A1",
"& 	c #F1A7A3",
"* 	c #F0A9A4",
"= 	c #F0ABA4",
"- 	c #EAC7C7",
"; 	c #EEB3B3",
"> 	c #F1A3A3",
", 	c #F1A2A0",
"' 	c #F0ACA5",
") 	c #F0AFA6",
"! 	c #EFB2A8",
"~ 	c #EFB5A9",
"{ 	c #EFB6A9",
"] 	c #EFB7AA",
"^ 	c #000000",
"/ 	c #EBC1C1",
"( 	c #EFAEAE",
"_ 	c #F1A09F",
": 	c #F1A6A2",
"< 	c #EFB2A7",
"[ 	c #EEBCAC",
"} 	c #EEC0AE",
"| 	c #EDC3AF",
"1 	c #EDC4B0",
"2 	c #EDC5B0",
"3 	c #C6C9FF",
"4 	c #2C2F82",
"5 	c #EFACAC",
"6 	c #F0A9A3",
"7 	c #EEBDAD",
"8 	c #EDC9B2",
"9 	c #ECCDB4",
"0 	c #ECD0B5",
"a 	c #ECD2B6",
"b 	c #EFB1A7",
"c 	c #EFB9AB",
"d 	c #EEC2AF",
"e 	c #EDCAB3",
"f 	c #ECD5B7",
"g 	c #EBD9B9",
"h 	c #EBDCBA",
"i 	c #EBDEBB",
"j 	c #AEB4EF",
"k 	c #3F48AA",
"l 	c #EAE5BE",
"m 	c #E9E8C0",
"n 	c #E9E8C2",
"o 	c #EAE0BC",
"p 	c #C3AB5B",
"q 	c #A59156",
"r 	c #BCA358",
"s 	c #E8E7CD",
"t 	c #E8E7CE",
"u 	c #E8E7CB",
"v 	c #E8E8C7",
"w 	c #D3D7FF",
"x 	c #FFFFFF",
"y 	c #E8D0D0",
"z 	c #A59051",
"A 	c #877643",
"B 	c #E5E5E3",
"C 	c #E6E5DC",
"D 	c #E8E9FF",
"E 	c #262C6D",
"F 	c #ECBEBE",
"G 	c #A6914E",
"H 	c #353D93",
"I 	c #96844C",
"J 	c #AD9651",
"K 	c #FF0000",
"L 	c #917E44",
"M 	c #C2AA5B",
"N 	c #B69E57",
"O 	c #B9A35D",
"P 	c #2E2A1B",
"Q 	c #A3A5CB",
"R 	c #CED2FA",
"S 	c #E6DBDB",
"T 	c #EFABAB",
"U 	c #988547",
"V 	c #CE0000",
"W 	c #BBA55C",
"X 	c #BEA96D",
"Y 	c #C0AF81",
"Z 	c #C3B597",
"` 	c #CAC1B4",
" .	c #D5D0D8",
"..	c #E7E9FF",
"+.	c #E9CCCC",
"@.	c #B6A15F",
"#.	c #BAA670",
"$.	c #BDAD88",
"%.	c #C2B6A0",
"&.	c #CAC2BE",
"*.	c #D3CED7",
"=.	c #E7E8FF",
"-.	c #D80000",
";.	c #E50000",
">.	c #BBA45D",
",.	c #B4A16C",
"'.	c #B5A684",
").	c #B9AE9C",
"!.	c #C1BBBD",
"~.	c #CCCADD",
"{.	c #DBDEFF",
"].	c #82723D",
"^.	c #EF0000",
"/.	c #F20000",
"(.	c #F50000",
"_.	c #F80000",
":.	c #FC0000",
"<.	c #7F0000",
"[.	c #9E0000",
"}.	c #E30000",
"|.	c #C40000",
"1.	c #B50000",
"2.	c #65582F",
"3.	c #665930",
"4.	c #A69358",
"5.	c #B2A37C",
"6.	c #B9AD98",
"7.	c #C6BFC2",
"8.	c #D9D8EC",
"9.	c #DBDEFE",
"0.	c #F0A4A4",
"a.	c #7C6E43",
"b.	c #93824C",
"c.	c #E7E7D2",
"d.	c #ECCEB5",
"e.	c #EBD6B8",
"f.	c #EAE6BE",
"g.	c #E9E8C3",
"h.	c #EEBBAC",
"i.	c #ECD4B7",
"j.	c #EBDABA",
"k.	c #F19F9F",
"l.	c #ECBABA",
"m.	c #EDB9B9",
"            . + @ # $ % & * = = = * & % $ # @ + .               ",
"          - ; > , & ' ) ! ~ { ] { ~ ! ) ' & , > ^ ^             ",
"        / ( _ : ' < ] [ } | 1 2 1 | } [ ] < ' ^ 3 4 ^           ",
"      / 5 $ 6 ) { 7 1 8 9 0 a a a 0 9 8 1 7 ^ 3 3 4 ^ /         ",
"    - ( $ * b c d e 0 f g h i i i h g f 0 ^ 3 j 3 k 4 ^ -       ",
"  . ; _ 6 ^ ^ ^ ^ ^ ^ ^ l m n n n m l o ^ 3 j j 3 4 4 ^ ; .     ",
"  + > ^ ^ p q r p p p p ^ ^ s t s u v ^ 3 w w 3 k 4 x 4 ^ +     ",
"y @ ^ p p r z A z r r q z p ^   B C ^ 3 w D j 3 k 4 x E ^ @ y   ",
"F ^ q r r p r q A G p p A r p ^   ^ 3 w D w 3 3 4 H E E 4 ^ F   ",
"; ^ r z A q p r I G J K L M N O P Q R D K j j 3 H H E x x ^ ; S ",
"T ^ p r G U r p J U V K G W X Y Z `  ...K K 3 3 H 4 4 x x 4 ^ +.",
"^ r G p r G L J U V V K U @.#.$.%.&.*.=.K -.K k k k 4 E E 4 ^ / ",
"^ r p L p r U G V V ;.K r >.,.'.).!.~.{.K -.K K H H 4 E x x ^ + ",
"^ p U G p G ].V V V ;.;.;.;.^./.(._.:.K -.-.-.K K H 4 4 x x 4 ^ ",
"^ p G G ].].V <.[.V V [.V V V V V V V V V V V -.;.V 4 E E E 4 ^ ",
"^ U U U ].p p V <.[.V <.[.[.[.[.[.V V }.|.1.-.;.V 4 4 E E x 4 ^ ",
"^ ].].U 2.r G G V <.[.V 2.3.4.5.6.7.8.9.V 1.;.V H 4 4 E E E E ^ ",
"0.^ ].].p r ].].p V [.V ].].G r ^ ^ 3 {.V |.V 4 k 4 E E E E ^ / ",
"T % ^ ^ ^ ].].].G U V V ].2.q ^   ^ 3 D V V 4 k k E E E 4 ^ T +.",
"; $ ' ] 1 ^ 2.2.].2.G V a.b.^       ^ 3 V 3 4 k k 4 4 4 ^ $ ; S ",
"F # & < 7 e ^ ].2.2.a.b.^ ^         ^ 3 3 k 4 k 4 4 ^ ^ & # F   ",
"y @ , ' { d 9 ^ ^ ^ ^ ^ c.C B   B C c.^ 3 k 4 4 4 ^ { ' , @ y   ",
"  + > : ) c 1 d.e.i f.g.v u s t s u v ^ 3 4 4 4 ^ c ) : > +     ",
"  . ; _ 6 b h.1 9 i.j.o l m n n n ^ l o ^ 4 4 ^ h.b 6 _ ; .     ",
"    - ^ ^ ^ ^ c d e 0 f g h i i i h g f 0 ^ ^ c b * $ ( -       ",
"      ^ 5 $ 6 ^ { 7 ^ 8 9 ^ ^ ^ a ^ 9 8 ^ ^ { ) ^ ^ ^ /         ",
"      ^ ^ ^ _ ^ ' < ^ [ ^ | 1 2 1 ^ } ^ ] < ^ : ^ ( / ^         ",
"      ^   - ; ^ , & ^ ) ! ^ ^ ] { ^ ! ^ ' & ^ > ^ -   ^         ",
"      ^     . ^ @ # ^ % & * = ^ = ^ & ^ $ # ^ + ^     ^         ",
"      ^         ^ ^ ^ T ^ ^ ^ _ k.^ 0.T ^ ^ y   ^     ^         ",
"                    S +./ + l.m.l.+ / +.S                       ",
"                                                                "};
