/* XPM */
static char * fusion_xpm[] = {
"32 32 16 1",
" 	c None",
".	c #000000",
"+	c #C6C9FF",
"@	c #2C2F82",
"#	c #C3AB5B",
"$	c #BCA358",
"%	c #A6914E",
"&	c #AD9651",
"*	c #917E44",
"=	c #988547",
"-	c #82723D",
";	c #CE0000",
">	c #E50000",
",	c #FF0000",
"'	c #65582F",
")	c #7F0000",
"                                ",
"                                ",
"                                ",
"                                ",
"                        ..      ",
"                       .+@.     ",
"                       .+@.     ",
"     .......          .++@@.    ",
"   ..#$#$%##..        .++@@.    ",
"  .$###$#%&#*#.      .++@@@@.   ",
" .#$%=$#&=&$%$#.     .++@@@@.   ",
" .%#$%*&==#==$#.    .+++@@@@@.  ",
" .#*#$=%-;>=$#%#.  .+,,+@@@@@.  ",
".#=%#%--;;>>>>>,,,,,,,,,@@@@@@. ",
".#%%--');#*=#*$#. .++++,>@@@@@. ",
".===-##=);;));;;;;;>>>>>@@@@@@@.",
".--='$%%#);#''%%..+++;>@@@@@@@@.",
" .--#$--##=#--%.  .++++@@@@@@@. ",
"  ...---%=-%-'.    .+++@@@@@..  ",
"     .''-'%-..      .++@@@..    ",
"      .-''..         .+@..      ",
"       ...            ..        ",
"                                ",
"                 .              ",
"   ....                         ",
"   .   .  .  ... .  ..  ...     ",
"   ... .  . .    . .  . .  .    ",
"   .   .  .  ..  . .  . .  .    ",
"   .   .  .    . . .  . .  .    ",
"   .    ... ...  .  ..  .  .    ",
"                                ",
"                                "};
