/* XPM */
static char * anaIcon2_pm[] = {
/* width height ncolors cpp [x_hot y_hot] */
"64 64 30 1 0 0",
/* colors */
" 	s none	m none	c none",
".	s iconColor1	m black	c black",
"X	c #959595959595",
"o	c #999999999999",
"O	c #8C8C8C8C8C8C",
"+	c #818181818181",
"@	s iconGray5	m black	c #737373737373",
"#	c #666666666666",
"$	s iconGray6	m black	c #636363636363",
"%	c #595959595959",
"&	c #4D4D4D4D4D4D",
"*	c #404040404040",
"=	s iconGray7	m black	c #424242424242",
"-	c #BFBFBFBFBFBF",
";	c #E5E5E5E5E5E5",
":	c #A6A6A6A6A6A6",
"?	c #D4D4D4D4FFFF",
">	c #B0B0B0B0FFFF",
",	c #A3A3A3A3FFFF",
"<	c #94949494FFFF",
"1	c #78787878FFFF",
"2	c #333333333333",
"3	c #4F4F4F4FFFFF",
"4	c #3D3D3D3DFFFF",
"5	c #CBCBCBCBCBCB",
"6	c #B3B3B3B3B3B3",
"7	c #DADADADADADA",
"8	s iconColor2	m white	c white",
"9	s iconGray1	m white	c #dededededede",
"0	c #BEBEBEBEBEBE",
/* pixels */
"                  ...................                           ",
"               ..........................                       ",
"             ......XXoooXoXXXXXXXXoo........                    ",
"            ....XXXOOXXXXXooXXooooXXXooXX.....                  ",
"           ....XooOOOO++O+++++++++++oooXXXoX....                ",
"          ...XXooXO+XX+++++@+@@@@@++++++++XXXX...               ",
"          ..XoXXOO+++@@+@@+@@@@@+@@+@@@++++oXXXX..              ",
"         ...Xoo+O+++@@@@@@@@####@++@@@@@@++++ooXX..             ",
"         ..XooO++@@+#@####$%%&%%%%%%%%%%$$$$+@+XoX..            ",
"         ..oooXXX@#####%%%%%%%%%&&&&%&&%$$$$$@@ooXX.            ",
"         ..oooO@@@+@####%&&&&&&&&&&&&%%%$$$$$@++ooX..           ",
"         ..XXXXOX@+@####%%%%&******&&&&&%%#@@+@++XX..           ",
"          ..XXXXO+@#####%&&&***********&&%%%#@@++oX..           ",
"          ..XXo@O+@@+#%%#%&%&*&&********&&%%%#@@+oX..           ",
"          ..XXoX@++@@#%##%&&*******&*****&%$$#@@+XX..           ",
"           ..ooXX+@@@#@%#%*******&*******&%%%%@++XX..           ",
"            ..XXXXX+@@###$$&&$$=******&&&=%%%##+ooX..           ",
"            ...oXoXX+@@@@@$$%%%%=&&&===&&%%%#@@@ooX..           ",
"             ..XXooX++++@$@$$$$=%%%%&&&%%=%$#o++oXX..           ",
"               .XXoooXX++@@##%%@#%%%%%%%%$%#++XooX..            ",
"               ..XXXooXXX@@#@@@@%%%###@$$+%++oXXoX..            ",
"                ..XXXXoXXo##ooo@###X@@%$$$+XXXXXo..             ",
"                 ..XXXoXXX-;:@XXXXX-;:@XXXXXXXXXX.              ",
"                  ...XXXO-;:@XXXXXX;:@XXXXXXXXXX.               ",
"               ...X+++$$$$-;:@$$$$$-;:@$====@X..                ",
"             ..XXO++@?>?,*%**%??><?>>1&&&222=@X.                ",
"           ...X+@@%?>???>>**??<?>>>?>>,1...2=+X..               ",
"          ..XX+$#$>?>>>><13?<??>?>1>3>,31..=%XX..               ",
"         ..X+@@&2>?,>???,3??<>?11?,?13134.2#@X++..              ",
"        ..X+@$&2,??>?,,??3?>>>1,,,,?133==%@@+++@..              ",
"        ..X@$%&2,?,,,11,1?>>,<,313,3?4=%%@++X+@@..              ",
"       ..XX+&&2.,>>?,<1,1?,<1,1<<313=%@@+XX+X+@#..              ",
"      ...5:+@2.<,,1<<<34,,33===%@@+XXXXXO++++@@##.              ",
"      ..55:X+@..<<313144=#@@@@@+++XXXoOOO++++@@##..             ",
"      ..56::X+@@##@@@@@@@++XXXXXXXXXooOO++++@##....             ",
"      ..56::XXXXXOO++OOOOXXXXX::XXXooOOOO+++@55577..            ",
"      ..56:66::XXXXXXXXXXXXX:::::XXooXOOOO++@777775..           ",
"      ..5566556:::XXXXXXX::::66::XXoooOOOO++o775657..           ",
"      ...5555576::::::XXX:::6--66::XooXOOO+o57::::55..          ",
"       ..6:55776::XXXXXXX:6-777-6::XXXoXOOOo55XOO::7...         ",
"        ..X@*@@++XX@@@XXXXX::::XXXXX@@XXOOOo5:5::-Oo5..         ",
"         .XX@@*%@@@$$$@@@X++++++++++@XXXXOooo5OOOo-:55.         ",
"         .XX+88...888@*********@@+@+XXXXXoooo655Oo5Oo5.         ",
"         .XX+88.8..88@*88...888**@+XXXXXXooX::665+5O:5.         ",
"        ..XX+88....8%+*888...88%$$+XXXXXXXXXo::65+-O57.         ",
"        .Xoo+X8...88ooX88....88%$++XXXXXXXXXo:o65+-O:7.         ",
"       ..6oo++X++@*o-:o%8...8*%+++XXooooXXXXX::5+5-O5..         ",
"       .;66o+++@@99550:o@@@@%++++Xo:066ooXXXX:655O+:5..         ",
"      ..;566XX+995--0::oo+++++oo99990066:oXXoo5OO+55..          ",
"      ..;556oX+95---::o00ooo000999995066:oXXoo6+O55...          ",
"      ..;566oX995--::5o::00050599999506:ooXXoo::557..           ",
"      ..;56oXX99-0:5777oX00559999995556:ooXXXo55XX..            ",
"      ..;566oX995077777@X00559999995666:XXXXXoXXX..             ",
"      ..7756XXX99777775+@:0055999955666:oXXXXXXX..              ",
"       .5566XXX@@@@@@@Oo+X::055055556:::oXXXXXX..               ",
"       ..56oXX@+OOO@OOXXX@XX05555566::XXXXXXXX..                ",
"        ..6XX@X7777777:6:X@@X::::::XXXXXXXXXX.                  ",
"         .6XX+X@@@@@@@@7:X+@@X:::XXXXXXXXXX..                   ",
"         ..6XXo+7877;+@@@X+@@XXXXXXXXXXXX....                   ",
"          ..XXX778;777--+X+@@XXXXXXXXXX....                     ",
"           ...XXO::::O:-:XXXXXXXXXXX.....                       ",
"             ...XXXOOOXXXXXXXXXXXXX....                         ",
"               ....XXXXXXXXXXX......                            ",
"                ...................                             "};
