/* XPM */
static char * level_xpm[] = {
"32 32 33 1",
" 	c None",
".	c #E5E5E5",
"+	c #E6E6E6",
"@	c #E4E4E4",
"#	c #E4E4E5",
"$	c #DFE1E5",
"%	c #E3E3E5",
"&	c #4A46C5",
"*	c #2C27BF",
"=	c #2E29C0",
"-	c #E2E3E5",
";	c #E3E4E5",
">	c #E1E2E5",
",	c #1C16BC",
"'	c #3D7EED",
")	c #231EBD",
"!	c #1F19BC",
"~	c #1E1CBF",
"{	c #2635CA",
"]	c #1D1BBE",
"^	c #1C17BC",
"/	c #3C7BEB",
"(	c #222AC5",
"_	c #1D1ABE",
":	c #2739CC",
"<	c #1E1DBF",
"[	c #1D19BD",
"}	c #1D17BC",
"|	c #1D1CBE",
"1	c #2023C2",
"2	c #1E1EC0",
"3	c #2127C4",
"4	c #000000",
"................................",
"....++..........................",
"................................",
"................................",
"................................",
"+...............................",
"................................",
"................................",
".@..............................",
"#...............................",
"................................",
"................................",
"................................",
"..................@.............",
"$...#%.&**=......#..-;..#;##.#%#",
">...,,,,''),!......#;..........#",
".,,~{'''''''],,........;#;#....#",
"^~'''''''''''/(_,,..............",
"''''''''''''''''/:~<[},,}!....,|",
"'''''''''''''''''''''''''1~22<3'",
"''''''''''''''''''''''''''''''''",
"''''''''''''''''''''''''''''''''",
"''''''''''''''''''''''''''44''''",
"''''444''''''''''''''''''''4''''",
"'''''4'''''''''''''''''''''4''''",
"'''''4'''''44''44'44''44'''4''''",
"'''''4''''4''4''4'4''4''4''4''''",
"'''''4''''4444''4'4''4444''4''''",
"'''''4''4'4''''''4'''4'''''4''''",
"''''44444''444'''4''''444'444'''",
"''''''''''''''''''''''''''''''''",
"''''''''''''''''''''''''''''''''"};
