/* XPM */
static char*list_surfmatcher[]={
"20 16 8 1",
"b c #000080",
"# c #000000",
"c c #0000c0",
"f c #800000",
"d c #0000ff",
". c None",
"a c #c00000",
"e c #ff0000",
"....................",
"........#aa..#bc....",
"......aaaaa#.bbcdd#.",
".....aaaaeeee#bcddd.",
"....#aaaeeeee.bccdd.",
"....fff#aeeee.#ccdd.",
"....ffffaaa#..bbbd..",
"...ffffaaaaa..bbc#..",
"...ffffaaaa..bbbcc..",
"...#ff#aaa...#bbbc..",
"........a#..bbccc#..",
"............bbcdd...",
".......#...#bcd#....",
"...#######..........",
".......#............",
"...................."};
