/* XPM */
static char * list_volume_pm[] = {
/* width height ncolors cpp [x_hot y_hot] */
"20 16 9 1 0 0",
/* colors */
" 	s none	m none	c none",
".	s iconGray5	m black	c #737373737373",
"X	s iconGray7	m black	c #424242424242",
"o	s iconGray6	m black	c #636363636363",
"O	s iconGray3	m white	c #adadadadadad",
"+	s iconGray1	m white	c #dededededede",
"@	s iconColor2	m white	c white",
"#	s iconGray2	m white	c #bdbdbdbdbdbd",
"$	s iconGray4	m white	c #949494949494",
/* pixels */
"                    ",
"                    ",
"       ...Xo..      ",
"      .OO+XOO@.     ",
"     o@++##O@$O.    ",
"     .$##o#o##+.    ",
"    .O@O+$o$#+O$o   ",
"    .++++OoO+O+O.   ",
"    .O+O##o@#++O.   ",
"    .+$++o#o+#+O.   ",
"    oO+##O#+##$O.   ",
"     .O+#+X++$O.    ",
"     o.O$OoOO+o     ",
"       ..oXo.o      ",
"                    ",
"                    "};
