/* XPM */
static char * list_slice_xpm[] = {
"20 16 10 1",
" 	c None",
".	c #353535",
"+	c #737373",
"@	c #424242",
"#	c #636363",
"$	c #ADADAD",
"%	c #DEDEDE",
"&	c #FFFFFF",
"*	c #BDBDBD",
"=	c #949494",
"  ................. ",
"  ................. ",
"  .....+++@#++..... ",
"  ....+$$%@$$&+.... ",
"  ...#&%%**$&=$+... ",
"  ...+=**#*#**%+... ",
"  ..+$&$%=#=*%$=#.. ",
"  ..+%%%%$#$%$%$+.. ",
"  ..+$%$**#&*%%$+.. ",
"  ..+%=%%#*#%*%$+.. ",
"  ..#$%**$*%**=$+.. ",
"  ...+$%*%@%%=$+... ",
"  ...#+$=$#$$%#.... ",
"  .....++#@#+#..... ",
"  ................. ",
"  ................. "};
