/* XPM */
static char*list_interpoler[]={
"20 16 10 1",
"c c #008000",
"g c #00ff00",
"h c #808000",
"# c #000000",
"e c #c4ba00",
"a c #a19900",
"b c #ffff00",
". c None",
"f c #058f00",
"d c #00c000",
"....................",
"....................",
"...#a...........b#..",
"...aacaa#....#bdbb..",
"...aacaaeefeebbdbb..",
"...ccdaaeefeeddgdd..",
"...aacccffdffbbdbb..",
"...aacaaeefeebbdbb..",
"...#acaaeefee#bdb#..",
"...hhchh#acaaeefee..",
"...chchhaacaaeefcf..",
"...hcdccccdccffdee..",
"...hhchhaacaaeefee..",
"...#hchhaacaaeefe#..",
"........#acaa#......",
"...................."};
