/* XPM */
static char * list_vectorfield_xpm[] = {
"20 16 9 1",
" 	c None",
".	c #CC0B0B",
"+	c #3E58F7",
"@	c #910000",
"#	c #FC8585",
"$	c #051994",
"%	c #94A3FF",
"&	c #FF3232",
"*	c #112AC1",
"                    ",
"                    ",
"   .              + ",
"   @#            $% ",
"   @&#          $*% ",
"   @&&#        $*+% ",
"   @.&&#      $*++% ",
"   @.&&&#    $*+++% ",
"   @@.@        $$*% ",
"   @  &        *  % ",
"      @&      $+    ",
"       .      *     ",
"       @&    $+     ",
"        .    *      ",
"        @&  $+      ",
"         .  *       "};
