/* XPM */
static char * list_afgraph_pm[] = {
/* width height ncolors cpp [x_hot y_hot] */
"20 16 8 1 0 0",
/* colors */
" 	s iconColor5	m black	c blue",
".	s iconColor7	m white	c cyan",
"X	s none	m none	c none",
"o	s iconGray8	m black	c #212121212121",
"O	s iconColor1	m black	c black",
"+	s iconGray5	m black	c #737373737373",
"@	s iconColor3	m black	c red",
"#	s iconGray7	m black	c #424242424242",
/* pixels */
" .XXXXXXXXXXXXXXXX .",
"X  .XXXXXoXOOOXXX .X",
"XX    .+++oO@O+X  .X",
"XX .XX+XXoXOOOX+X  .",
"XXXOOOXXXXXXoXX  .XX",
"XXXO@OXXXXXo+o .+#XX",
"XXXOOOXXXXXX+XXX#XXX",
"XXXXoXXXXXXX+XXOOOXX",
"XXXo+oXXXXX+XXXO@OXX",
"XXXX+XXXXXX.XXXOOOXX",
"XXXXX+.XXX+X .XXXXXX",
"XXX  .XOOOXXX   .XXX",
"X   .X+O@OXXXX .XXXX",
"XX   .XOOOXXX   .XXX",
"X  .XXXXXXXXXXXX  .X",
"X .XXXXXXXXXXXXXXXXX"};
