/* XPM */
static char * list_mtexture_xpm[] = {
"20 16 28 1",
" 	c None",
".	c #00F244",
"+	c #DEDEDE",
"@	c #ADADAD",
"#	c #FFFF00",
"$	c #E2A717",
"%	c #BEF21C",
"&	c #4CAA23",
"*	c #5ED12C",
"=	c #FF0000",
"-	c #FE6000",
";	c #FFA100",
">	c #B2E21B",
",	c #BDBDBD",
"'	c #949494",
")	c #33B220",
"!	c #55BE28",
"~	c #00B432",
"{	c #009128",
"]	c #2C991B",
"^	c #469D21",
"/	c #737373",
"(	c #9D961D",
"_	c #D38F30",
":	c #E2BC2C",
"<	c #FE8B00",
"[	c #E2D82D",
"}	c #66E22F",
"                    ",
"                    ",
"       .+++@+       ",
"     +#$%+&*+@      ",
"    +=-;>,')*!+     ",
"    #;#*~{'']^*@    ",
"   +=#''/{+#(_!^    ",
"   @#@'++:-=;-(*    ",
"   ''@/+<[$#=+*!    ",
"    ''++=={*@+!&    ",
"       '#'~}','^    ",
"        //'},'      ",
"         '//        ",
"                    ",
"                    ",
"                    "};
