/* XPM */
static char * list_node_pm[] = {
/* width height ncolors cpp [x_hot y_hot] */
"20 16 11 1 0 0",
/* colors */
" 	s none	m none	c none",
".	s iconColor1	m black	c black",
"X	s iconGray3	m white	c #adadadadadad",
"o	s iconGray2	m white	c #bdbdbdbdbdbd",
"O	s iconGray1	m white	c #dededededede",
"+	s iconGray4	m white	c #949494949494",
"@	s iconColor3	m black	c red",
"#	s iconColor6	m white	c yellow",
"$	s iconGray6	m black	c #636363636363",
"%	s iconGray5	m black	c #737373737373",
"&	s iconGray7	m black	c #424242424242",
/* pixels */
"                    ",
"                    ",
"                    ",
"                    ",
"       ......       ",
"   .  .XooOOO.  .   ",
"   .. .X....O.  ..  ",
"....O..+.@#.o....O. ",
".$+++o.%.@@.X.$+++o.",
"....+..$....X....+. ",
"   .. .&$$%++.  ..  ",
"   .   ......   .   ",
"                    ",
"                    ",
"                    ",
"                    "};
