/* XPM */
static char * list_planarfusion_xpm[] = {
"20 16 16 1",
" 	c None",
".	c #686868",
"+	c #777777",
"@	c #8C8C8C",
"#	c #595959",
"$	c #757575",
"%	c #B5B5B5",
"&	c #FFC532",
"*	c #C6C6C6",
"=	c #B2B2B2",
"-	c #FE7D00",
";	c #FF6531",
">	c #FF9239",
",	c #BCBCBC",
"'	c #FE3025",
")	c #939393",
"                    ",
"                    ",
"          .+.@@#    ",
"      .+$.++@++$#+  ",
"    #+.@@.%%@$$#+#+ ",
"  #+$.+%&*=+$#$*+++ ",
"  +@@$&-;>+#.@,@%+@ ",
" #@@&@>'++.@@+.=+*@ ",
" ++++>;$.#@@)=*@+@+ ",
" +@=&&$.@.+)*@+.$@+ ",
" +@+=@@#=*@*++=@..  ",
" @++@#$=+=@.**@$+#  ",
" #+@$#.*+@.@$=.+#+  ",
"  #+.@@.@=+.+++     ",
"   +#+.+@+.+        ",
"                    "};
