/* XPM */
static char * list_tesselatedmesh_xpm[] = {
"20 16 12 1",
" 	c None",
".	c #3E2020",
"+	c #634141",
"@	c #987474",
"#	c #743030",
"$	c #AD7B7B",
"%	c #973F3F",
"&	c #D28080",
"*	c #B07474",
"=	c #7A3939",
"-	c #A05757",
";	c #452F2F",
"                    ",
"                    ",
"                    ",
".....++++++++@@@@@@@",
".####$%%%%%%%$&&&&&@",
".####*$%%%%%%*$&&&&@",
".###*=*%%%%%*--$&&&@",
".###*==$%%%%*--*&&&@",
".##*===*%%%*----$&&@",
".##*====$%%*----*&&@",
".#*=====*%*------$&@",
".#*======$*------*&@",
".*=======*--------*@",
";;;;;;;;;++++++++++@",
"                    ",
"                    "};
