/* XPM */
static char * list_fascgraph_pm[] = {
/* width height ncolors cpp [x_hot y_hot] */
"20 16 3 1 0 0",
/* colors */
" 	s none	m none	c none",
".	s iconColor3	m black	c red",
"X	s iconColor5	m black	c blue",
/* pixels */
"        .    .      ",
"    .    .  .   ..  ",
"    .  .  . .  .    ",
"..  .  .   .XX.     ",
" .. .  .    XX      ",
"   .XX.     .    .  ",
"    XX.     .    .  ",
"      .     .   XX  ",
"       .   ..  .XX..",
"        XX XX .     ",
"        XX.XX.      ",
"         .          ",
"        XX...       ",
"       .XX   ...    ",
"      .             ",
"     .              "};
