/* XPM */
static char * list_hierarchy_pm[] = {
/* width height ncolors cpp [x_hot y_hot] */
"20 16 9 1 0 0",
/* colors */
" 	s none	m none	c none",
".	s iconColor1	m black	c black",
"X	s iconColor3	m black	c red",
"o	s iconColor4	m white	c green",
"O	s iconColor6	m white	c yellow",
"+	s iconColor5	m black	c blue",
"@	s iconColor2	m white	c white",
"#	s iconGray4	m white	c #949494949494",
"$	s iconGray2	m white	c #bdbdbdbdbdbd",
/* pixels */
"        .....       ",
"        .XXX.       ",
"        .XXX.       ",
"        .....       ",
"          .         ",
"      ............  ",
"      .   .      .  ",
"    .... ...   .... ",
"    .oo. .O.   .++. ",
"    .oo. .O.   .++. ",
"    .... ...   .... ",
" .....   .....   .  ",
" .   .   .   .   .  ",
"... ... ... ... ... ",
".@. .@. .#. .#. .$. ",
"... ... ... ... ... "};
