/* XPM */
static char * list_volmultires_xpm[] = {
"20 16 14 1",
" 	c None",
".	c #A9CCBD",
"+	c #1E5C91",
"@	c #645CC9",
"#	c #862F87",
"$	c #B7192F",
"%	c #C820CA",
"&	c #D485D5",
"*	c #251E7F",
"=	c #9C96EA",
"-	c #0D3252",
";	c #70BDFF",
">	c #D6F6E8",
",	c #365145",
"..........+++++@@##$",
"..........+++++@@%%&",
"..........+++++**===",
"..........+++++**===",
"..........-----;;;;;",
"..........-----;;;;;",
"..........-----;;;;;",
"..........-----;;;;;",
">>>>>>>>>>,,,,,,,,,,",
">>>>>>>>>>,,,,,,,,,,",
">>>>>>>>>>,,,,,,,,,,",
">>>>>>>>>>,,,,,,,,,,",
">>>>>>>>>>,,,,,,,,,,",
">>>>>>>>>>,,,,,,,,,,",
">>>>>>>>>>,,,,,,,,,,",
">>>>>>>>>>,,,,,,,,,,"};
