/* XPM */
static char * list_2dmesh_xpm[] = {
"20 16 5 1",
" 	c None",
".	c #070000",
"+	c #630808",
"@	c #B71919",
"#	c #E85252",
" .................  ",
" ..+@@@@#.....@#..  ",
" ..@....+@..+@..#.  ",
" .@.......#.@...@.  ",
" .@.......@.@...@.  ",
" .+@.....@.@....@.  ",
" ...@....@.@...@..  ",
" ...+@...@.@..@...  ",
" ...@....@.@..+@..  ",
" ..@....@..@...@..  ",
" .@.....@..@....#.  ",
" .@.....@..@...@..  ",
" .@......#.@.#@...  ",
" .+@@@...@.@@.....  ",
" ....+@@@.........  ",
" .................  "};
