/* XPM */
static char * list_normals_xpm[] = {
"20 16 9 1",
" 	c None",
".	c #A92222",
"+	c #790505",
"@	c #FC5959",
"#	c #545F9D",
"$	c #6A87BD",
"%	c #2859B2",
"&	c #082B6A",
"*	c #5F95F7",
"                    ",
" .                  ",
" +@               . ",
" +..@            .@ ",
" ++. @         +..@ ",
" + .            ++@ ",
"    .          .  @ ",
"     .        .     ",
"     +       .      ",
"      ######$       ",
"     #%%%%%%%$      ",
"    #&#%%%%%##      ",
"   #&&&#%%%#**$     ",
"  #&&&&#%%#****$    ",
" #&&&&&&##******$   ",
" ################$  "};
