/* XPM */
static char * list_cutmesh_xpm[] = {
"20 16 34 1",
" 	c None",
".	c #595959",
"+	c #686868",
"@	c #4F4F4F",
"#	c #494949",
"$	c #7F7F7F",
"%	c #AFAFAF",
"&	c #9B9B9B",
"*	c #7C7C7C",
"=	c #666666",
"-	c #DDDDDD",
";	c #CECECE",
">	c #CCCCCC",
",	c #324E76",
"'	c #3E6193",
")	c #2E496E",
"!	c #263C5B",
"~	c #3A5A89",
"{	c #526C9B",
"]	c #707070",
"^	c #FF5C00",
"/	c #FF8C00",
"(	c #6181B8",
"_	c #3F3F3F",
":	c #FF9200",
"<	c #FF0017",
"[	c #7298D9",
"}	c #6B8ECB",
"|	c #999999",
"1	c #FFD600",
"2	c #81ABF4",
"3	c #7AA2E6",
"4	c #87B3FF",
"5	c #C9C9F4",
"                    ",
"                    ",
"      .++.+@##      ",
"     .$%%&&*=.@#    ",
"    +-;>%,''''')!   ",
"   .$--;,~{{{{{{)   ",
"   +>;-]~{^/((({{)  ",
"  _$%;-'{:<^[[}({'  ",
"  .&|>]{1^^123[(('  ",
"  @&&%,{(1:452[(('  ",
"  @*&&'{([2552[({'  ",
"  _==*'{(}[32[}({)  ",
"  _@.=,~{(}[[}({~!  ",
"    _@!'~{(((({~,   ",
"       !'''''''!    ",
"                    "};
