/* XPM */
static char * measure_xpm[] = {
"32 32 7 1",
" 	c None",
".	c #1B1B1B",
"+	c #858585",
"@	c #A1A1A1",
"#	c #585858",
"$	c #767676",
"%	c #000000",
"                ..              ",
"               .+@..            ",
"                .+@...          ",
"                 .+@@@...       ",
"                  .+@@@@@.      ",
"                   .+@@@@@.     ",
"                    .+@@@@@.    ",
"                     .+@@@@@.   ",
"           ..         .+@@@@@.  ",
"           .#.       .+@@@@@@@. ",
"           .#$.     .+@@@@+@@.  ",
"            .#$.   .+@@@@@.+@%  ",
"            .#$$. .+@@@@@. .+@% ",
"             .#$$.+@@@@@.   .%% ",
"             .#$$$.+@@@.        ",
"            .#$$$.+@@+@%        ",
"         . .#$$$.+@@..+@%       ",
"        .#.#$$$.+@@.#$.+%       ",
"         .#$$$.+@@.#$. %+%      ",
"          .#$.+@@.#$.   %%      ",
"         .+..+@@.#$.     %      ",
"        .+@@+@@.#$.             ",
"       .+@@@@@.#$.              ",
"      .+@@@@@@.#.               ",
"     .+@@@@@@. .                ",
"    .+@@@@@@.                   ",
"   .+@@@@@@.                    ",
"  .++@@@@@.                     ",
"   .+@@@@.                      ",
"    .+@@.                       ",
"     .+.                        ",
"      .                         "};
