/* XPM */
static char * measure_xpm[] = {
"32 32 2 1",
" 	c None",
".	c #1B1B1B",
"               .  .             ",
"               . .              ",
"               ......           ",
"               ..               ",
"              .   ...           ",
"             .   .  ..          ",
"            .     ..  .         ",
"           .       .. ..        ",
"         ..          .. ......  ",
"    ......            . ...   . ",
"       ...   ..       ......  . ",
"      .. .   ...       ..  .. . ",
"     ..  .   . .      ...   ... ",
"    ..   .   .  .    .. .. .... ",
"    .    .    . ..  ..   .... . ",
"   .           . ...      ... . ",
"  .             ...      ..  .. ",
" .              ..      ..      ",
"               ..      .        ",
"              ...     ..        ",
"             ...     . ..       ",
"            . .     .....       ",
"           . ..    .            ",
"          .  .    .             ",
"         ....    .              ",
"        . ..    .               ",
"       . ..    .                ",
"     .. .    ..                 ",
"     .      ..                  ",
"     .    ...                   ",
"     ......                     ",
"                                "};
