/* XPM */
static char * movie_xpm[] = {
"32 32 8 1",
" 	c None",
".	c #000000",
"+	c #005F9B",
"@	c #00426B",
"#	c #99B8CC",
"$	c #C1E1F4",
"%	c #839BAA",
"&	c #63747F",
"  ....          ............    ",
"  ......    ..................  ",
"  ..   ..................   ..  ",
"  ..   ..................   ..  ",
"  ........++++++++++++........  ",
"  .......@++++......+++.......  ",
"  .......@+...#$#%$$.++.......  ",
"  ..   ..@@.#%$#$#%#$.+..   ..  ",
"  ..   ..@.%#$%$%&.#%.+..   ..  ",
"  .......@.#$#$%&.#$#.+.......  ",
"  .......@..%$%#.#$%#.+.......  ",
"  .......@@..%#.#%%#.++.......  ",
"  ..   ..@@@@..@.##.+++..   ..  ",
"  ..   ...@@@@@@@..+++...   ..  ",
"  ............................  ",
"  ............................  ",
"  ............................  ",
"  ..   ...++++++++++++...   ..  ",
"  ..   ..@++++......+++..   ..  ",
"  .......@@+..#$$#$$.++.......  ",
"  .......@@..%#&#$###.+.......  ",
"  .......@@.$#.$$#.$$.+.......  ",
"  ..   ..@.$#.##$..$$.+..   ..  ",
"  ..   ..@.#..$$#.#$#.+..   ..  ",
"  .......@.%.#$#&.##.++.......  ",
"  .......@@..%#%.@..+++.......  ",
"  ........@@....@@@@@+........  ",
"  ..   ..................   ..  ",
"  ..   ..................   ..  ",
"  ............................  ",
"   .......+...         .......  ",
"     .......               ...  "};
