/* XPM */
static char * name_xpm[] = {
"32 32 18 1",
" 	c None",
".	c #667E8F",
"+	c #86A3B7",
"@	c #4E565C",
"#	c #6D7982",
"$	c #B1CCE0",
"%	c #000000",
"&	c #3F474D",
"*	c #555F66",
"=	c #30363A",
"-	c #292E31",
";	c #50595F",
">	c #485157",
",	c #363D41",
"'	c #4A5761",
")	c #363B3F",
"!	c #26292C",
"~	c #3E4A52",
"                                ",
"                                ",
"                                ",
"                                ",
"                                ",
"                                ",
"        .......................+",
"       .@@@@@@@@@@@@@@@@@@@@@@@#",
"      .@$$$$$$$$$$$$$$$$$$$$$$$@",
"     .@$$$$$$$$$$$$$$$$$$$$$$$$@",
"    .@$$$$$$$$$$$$$$$$$$$$$$$$$@",
"   .@$$$$$$$$$$$$$$$$$$$$$$$$$$@",
"  .@$$$$$%$$$%$$$$$$$$$$$$$$$$$@",
" .@$$&*$$%%$$%$$%%$$$%$%$$$%%$$@",
".@$$&=-*$%$%$%$$$$%$%$%$%$%$$%$@",
";$$>,==&$%$%$%$$%%%$%$%$%$%%%%$@",
"')$$>&,>$%$$%%$%$$%$%$%$%$%$$$$@",
" ')$$>>$$%$$$%$$%%$$%$%$%$$%%$$@",
"  ')$$$$$$$$$$$$$$$$$$$$$$$$$$$@",
"   ')$$$$$$$$$$$$$$$$$$$$$$$$$$@",
"    ')$$$$$$$$$$$$$$$$$$$$$$$$$@",
"     ')$$$$$$$$$$$$$$$$$$$$$$$$@",
"      '))))))))))))))))))))))))!",
"       ''''''''''''''''''''''''~",
"                                ",
"                                ",
"                                ",
"                                ",
"                                ",
"                                ",
"                                ",
"                                "};
