/* XPM */
static char * name_xpm[] = {
"32 32 26 1",
" 	c None",
".	c #B0B0C2",
"+	c #A8A8B3",
"@	c #1C1C1C",
"#	c #070707",
"$	c #8E8E8E",
"%	c #000000",
"&	c #1F1F1F",
"*	c #585858",
"=	c #434343",
"-	c #363636",
";	c #494949",
">	c #272727",
",	c #0E0E0E",
"'	c #737373",
")	c #060606",
"!	c #9E9EA2",
"~	c #020202",
"{	c #030303",
"]	c #0C0C0C",
"^	c #666666",
"/	c #808080",
"(	c #101010",
"_	c #202020",
":	c #4F4F4F",
"<	c #AEAEC0",
"................................",
"................................",
"................................",
"................................",
"................................",
".........++.....................",
".........@#.....................",
".........$%&....................",
"..........*%&...................",
"...........*%=..................",
"............-%=.................",
".............-%;................",
"..............>%-...............",
"...............=%,..............",
"................'%)...%.........",
".................!~{..%.........",
"..................!{]^%.........",
".................../%(_.........",
"....................:%-.........",
"..................)%%%%.........",
"................................",
"................................",
"................................",
"................................",
".....%...%......................",
".....%%..%..%%...%.%...%%.......",
".....%.%.%....%.%.%.%.%..%......",
".....%.%.%..%%%.%.%.%.%%%%......",
".....%.<%%.%..%.%.%.%.%.........",
".....%...%..%%..%.%.%..%%.......",
"................................",
"................................"};
