/* XPM */
static char * oblique_xpm[] = {
"32 32 176 2",
"  	c None",
". 	c #000000",
"+ 	c #96D5FF",
"@ 	c #A5A5A5",
"# 	c #A8A8A8",
"$ 	c #BFBFBF",
"% 	c #D8D8D8",
"& 	c #B5B5B5",
"* 	c #777777",
"= 	c #8CD1FF",
"- 	c #A8DCFF",
"; 	c #2A2A2A",
"> 	c #6F6F6F",
", 	c #B2B2B2",
"' 	c #E2E2E2",
") 	c #C0C0C0",
"! 	c #B8B8B8",
"~ 	c #85A9C1",
"{ 	c #9AD3FB",
"] 	c #323232",
"^ 	c #E9E9E9",
"/ 	c #DEDEDE",
"( 	c #CCCCCC",
"_ 	c #C1C1C1",
": 	c #A7A7A7",
"< 	c #8A9094",
"[ 	c #83B5D7",
"} 	c #89CAF7",
"| 	c #90D2FF",
"1 	c #9BD7FF",
"2 	c #A6DBFF",
"3 	c #A5DBFF",
"4 	c #9DD8FF",
"5 	c #A3DAFF",
"6 	c #737373",
"7 	c #EAEAEA",
"8 	c #FFFFFF",
"9 	c #FCFCFC",
"0 	c #F0F0F0",
"a 	c #DDDDDD",
"b 	c #D9D9D9",
"c 	c #C9C9C9",
"d 	c #BDBDBD",
"e 	c #BCBCBC",
"f 	c #B6B6B6",
"g 	c #969696",
"h 	c #80BDE6",
"i 	c #86CEFF",
"j 	c #91D3FF",
"k 	c #93D4FF",
"l 	c #94D5FF",
"m 	c #A1DAFF",
"n 	c #838383",
"o 	c #ECECEC",
"p 	c #EEEEEE",
"q 	c #AAAAAA",
"r 	c #959595",
"s 	c #7AC9FF",
"t 	c #84CEFF",
"u 	c #F9F9F9",
"v 	c #E5E5E5",
"w 	c #C6C6C6",
"x 	c #ADADAD",
"y 	c #A9A9A9",
"z 	c #96A0A7",
"A 	c #83B7DA",
"B 	c #7CCAFF",
"C 	c #83CDFF",
"D 	c #92D3FF",
"E 	c #81CCFF",
"F 	c #696969",
"G 	c #DFDFDF",
"H 	c #F3F3F3",
"I 	c #E3E3E3",
"J 	c #D6D6D6",
"K 	c #D5D5D5",
"L 	c #C5C5C5",
"M 	c #B1B1B1",
"N 	c #ABABAB",
"O 	c #9D9D9D",
"P 	c #85B3D3",
"Q 	c #80CCFF",
"R 	c #919191",
"S 	c #C7C7C7",
"T 	c #DBDBDB",
"U 	c #EFEFEF",
"V 	c #CDCDCD",
"W 	c #CECECE",
"X 	c #C3C3C3",
"Y 	c #B9B9B9",
"Z 	c #B3B3B3",
"` 	c #949494",
" .	c #7DCAFF",
"..	c #83C9F7",
"+.	c #0E3148",
"@.	c #1879BA",
"#.	c #F1F1F1",
"$.	c #E4E4E4",
"%.	c #D7D7D7",
"&.	c #BABABA",
"*.	c #A4A4A4",
"=.	c #8E8E8E",
"-.	c #80AFCE",
";.	c #7DCBFF",
">.	c #82CDFF",
",.	c #7BC1F0",
"'.	c #2B88C6",
").	c #07609B",
"!.	c #DCDCDC",
"~.	c #CFCFCF",
"{.	c #CACACA",
"].	c #D4D4D4",
"^.	c #BBBBBB",
"/.	c #B4B4B4",
"(.	c #9A9A9A",
"_.	c #78868F",
":.	c #73A9CE",
"<.	c #8ACAF5",
"[.	c #4EB9FC",
"}.	c #2D96DC",
"|.	c #116DAA",
"1.	c #D2D2D2",
"2.	c #4E9FD6",
"3.	c #5FB9F6",
"4.	c #52B7FA",
"5.	c #1C82C6",
"6.	c #A3A3A3",
"7.	c #989898",
"8.	c #8D989F",
"9.	c #4295CC",
"0.	c #63B8F1",
"a.	c #75C6FE",
"b.	c #309BE1",
"c.	c #1D79B7",
"d.	c #7A7A7A",
"e.	c #359DE3",
"f.	c #69BFF9",
"g.	c #2C96DC",
"h.	c #2890D6",
"i.	c #707070",
"j.	c #6CA1C4",
"k.	c #41A5E8",
"l.	c #57B5F4",
"m.	c #72C5FD",
"n.	c #329CE2",
"o.	c #258DD2",
"p.	c #2892D7",
"q.	c #2E98DE",
"r.	c #359EE3",
"s.	c #43AAEE",
"t.	c #5DBEFF",
"u.	c #78C8FF",
"v.	c #45ADF2",
"w.	c #359FE5",
"x.	c #2F98DE",
"y.	c #2D97DD",
"z.	c #339BE1",
"A.	c #3AA3E9",
"B.	c #4AB1F6",
"C.	c #5BBDFF",
"D.	c #62BFFF",
"E.	c #4FB4F7",
"F.	c #41A9EF",
"G.	c #38A3EA",
"H.	c #43ABF0",
"I.	c #40A8EE",
"J.	c #3EA7EE",
"K.	c #59BCFF",
"L.	c #63C0FF",
"M.	c #55B9FC",
"N.	c #53B8FB",
"O.	c #54B9FC",
"P.	c #6BC3FF",
"Q.	c #68C2FF",
"R.	c #60BFFF",
"S.	c #5FBEFF",
"                                                                ",
"                                                                ",
"                                                                ",
"                                                                ",
"                                                                ",
"                        . . . . . .                             ",
"                      . + @ # # # @ . . . . . . .               ",
"                  . . # $ % & % & @ * @ = = - - - . . . . . . . ",
"                . ; > % , ' % $ % ) ! @ # ~ { = - - - - - - - . ",
"              . ] > ^ ^ ^ ^ $ / / ( _ ! : < [ } | 1 2 3 4 5 - . ",
"              . 6 7 8 8 8 9 0 a b a c d e f g h i j k l - m .   ",
"            . n o 8 8 8 8 p / % d % c d ! q r h s t k k k - .   ",
"            . n o u v 9 8 p / a % w $ d ! x y z A B C D E .     ",
"          . F q G 9 H 7 ^ I J ( / K L ! M N O g P s Q k = .     ",
"          . R S T U U p I / % V W W X Y Z q r ` P s  ....       ",
"        . +.@.R b J G #.$.% %.% d d d &., *.O =.-.;.>.,..       ",
"        . '.).R V L / b !.~.{.].d d ^./.: (.# _.:.C <..         ",
"      8 [.}.|.).R L !._ ]./ 1.d d d Z x x q r 2.3.s - .         ",
"      . 4.'.5.).).R f e _ X _ d d d Z 6.7.8.9.0.a.- .   .       ",
"      . 8 b.c.|.).).d.6.# ! d # , , R y d.@.e.f.s - .   .       ",
"    . . . g.h.c.|.).).).d.=.i.6.).|.@.j.@.k.l.m.- .   . . .     ",
"    . . . 8 n.'.o.c.5.|.|.|.c.c.5.p.q.r.s.t.u.- - .   . . .     ",
"  . . . . . v.w.x.y.'.'.'.c.y.q.z.z.A.B.C.D.u.- .   . . . . .   ",
"  . . . . . 8 E.F.G.G.G.H.I.G.J.K.K.K.K.L.s s - .   . . . . .   ",
". . . . . . . 8 . . . . . M.N.O.K.K.P.Q.L.= = .   . . . . . . . ",
". .   .   . .             . . . . . R.S.L.= - .   . .   .   . . ",
"      . .                           . . . . .         . .       ",
"      . . .                                         . . .       ",
"        . . . .                                 . . . .         ",
"        . . .                                     . . .         ",
"          .                                         .           ",
"                                                                "};
