/* XPM */
static char * open_act_xpm[] = {
"32 32 247 2",
"  	c None",
". 	c #E7D4D4",
"+ 	c #ECBDBD",
"@ 	c #EEAFAF",
"# 	c #F1A2A2",
"$ 	c #000000",
"% 	c #F1A1A0",
"& 	c #EAC7C7",
"* 	c #EEB3B3",
"= 	c #F1A3A3",
"- 	c #4E4936",
"; 	c #7F7857",
"> 	c #958C66",
", 	c #968D67",
"' 	c #6B6549",
") 	c #020203",
"! 	c #EBC1C1",
"~ 	c #EFAEAE",
"{ 	c #F1A09F",
"] 	c #3A3728",
"^ 	c #807858",
"/ 	c #948B66",
"( 	c #8A825F",
"_ 	c #827A59",
": 	c #817959",
"< 	c #7D7656",
"[ 	c #797253",
"} 	c #7A7354",
"| 	c #867E5C",
"1 	c #928964",
"2 	c #635D44",
"3 	c #EFACAC",
"4 	c #F0A9A3",
"5 	c #978E68",
"6 	c #8D8561",
"7 	c #847C5B",
"8 	c #7E7756",
"9 	c #736C4F",
"0 	c #746D50",
"a 	c #6D674B",
"b 	c #686247",
"c 	c #6F684C",
"d 	c #766F51",
"e 	c #716A4E",
"f 	c #70694D",
"g 	c #FFFFFF",
"h 	c #8B835F",
"i 	c #494532",
"j 	c #F0A9A4",
"k 	c #56513B",
"l 	c #988F68",
"m 	c #6E684B",
"n 	c #605A42",
"o 	c #5B563E",
"p 	c #57523C",
"q 	c #55503A",
"r 	c #544F3A",
"s 	c #514C38",
"t 	c #EFB1A7",
"u 	c #433F2E",
"v 	c #8C8460",
"w 	c #666046",
"x 	c #615B43",
"y 	c #4F4A36",
"z 	c #44402F",
"A 	c #4A4633",
"B 	c #625C43",
"C 	c #7B7454",
"D 	c #F1A6A2",
"E 	c #F0AFA6",
"F 	c #EFB9AB",
"G 	c #EDC4B0",
"H 	c #676147",
"I 	c #4D4835",
"J 	c #403C2C",
"K 	c #423E2D",
"L 	c #413D2D",
"M 	c #726B4E",
"N 	c #89815E",
"O 	c #E8D0D0",
"P 	c #F1A2A0",
"Q 	c #F0ACA5",
"R 	c #EFB6A9",
"S 	c #EEC2AF",
"T 	c #ECCDB4",
"U 	c #6C664A",
"V 	c #645E45",
"W 	c #58533C",
"X 	c #464230",
"Y 	c #4C4834",
"Z 	c #5C573F",
"` 	c #ECBEBE",
" .	c #F1A7A3",
"..	c #EFB2A7",
"+.	c #EEBDAD",
"@.	c #EDCAB3",
"#.	c #ECD4B7",
"$.	c #EBDEBB",
"%.	c #696348",
"&.	c #8E8661",
"*.	c #756E50",
"=.	c #5F5941",
"-.	c #5E5841",
";.	c #504B37",
">.	c #EFB7AA",
",.	c #ECD0B5",
"'.	c #EBDABA",
").	c #EAE6BE",
"!.	c #E9E8C7",
"~.	c #5A553E",
"{.	c #655F45",
"].	c #938A65",
"^.	c #E6DBDB",
"/.	c #EFABAB",
"(.	c #F1A5A1",
"_.	c #EEBCAC",
":.	c #EDC9B2",
"<.	c #ECD5B7",
"[.	c #EAE0BC",
"}.	c #E9E8C3",
"|.	c #E8E7CD",
"1.	c #E5E5DE",
"2.	c #9F966D",
"3.	c #A59B71",
"4.	c #777052",
"5.	c #7C7555",
"6.	c #E9CCCC",
"7.	c #F0A4A4",
"8.	c #EFB2A8",
"9.	c #EEC0AE",
"0.	c #EBD9B9",
"a.	c #EAE5BE",
"b.	c #E8E8C7",
"c.	c #E7E7D2",
"d.	c #484431",
"e.	c #8F8FFF",
"f.	c #7F7FE8",
"g.	c #A79D73",
"h.	c #6A6AF7",
"i.	c #837B5C",
"j.	c #F1A0A0",
"k.	c #EFB5A9",
"l.	c #EDC3AF",
"m.	c #EBDCBA",
"n.	c #E9E8C0",
"o.	c #7B7456",
"p.	c #3F3FF4",
"q.	c #8989F9",
"r.	c #383859",
"s.	c #1D1B14",
"t.	c #534E39",
"u.	c #F19F9F",
"v.	c #F0ABA4",
"w.	c #ECD2B6",
"x.	c #5D5842",
"y.	c #CECEFF",
"z.	c #ADADF4",
"A.	c #5353F4",
"B.	c #BFBFFF",
"C.	c #9B9BFF",
"D.	c #4F4FF2",
"E.	c #4242B2",
"F.	c #302D21",
"G.	c #ECBABA",
"H.	c #EDC5B0",
"I.	c #BBBBFF",
"J.	c #B3B3FF",
"K.	c #9292FF",
"L.	c #B2B2F4",
"M.	c #9797FF",
"N.	c #8181FF",
"O.	c #817966",
"P.	c #877F5D",
"Q.	c #EDB9B9",
"R.	c #908863",
"S.	c #9999FF",
"T.	c #8888D7",
"U.	c #6565B3",
"V.	c #626280",
"W.	c #797266",
"X.	c #7A7370",
"Y.	c #857D5B",
"Z.	c #C0B584",
"`.	c #A2986F",
" +	c #69634B",
".+	c #7B7466",
"++	c #756E67",
"@+	c #756E68",
"#+	c #70695F",
"$+	c #8F8762",
"%+	c #C2B785",
"&+	c #AFA578",
"*+	c #B2A87A",
"=+	c #A0976E",
"-+	c #999069",
";+	c #9A916A",
">+	c #A99F74",
",+	c #A49A71",
"'+	c #837B5A",
")+	c #9B926A",
"!+	c #D6C993",
"~+	c #D0C48F",
"{+	c #CFC38E",
"]+	c #BCB181",
"^+	c #9D946C",
"/+	c #A69C72",
"(+	c #B7AC7E",
"_+	c #C8BC89",
":+	c #B3A87B",
"<+	c #A39970",
"[+	c #BFB483",
"}+	c #938A76",
"|+	c #BAAF80",
"1+	c #080806",
"2+	c #918864",
"3+	c #B0A679",
"4+	c #756D5F",
"5+	c #555555",
"6+	c #BBB080",
"7+	c #B5AA7C",
"8+	c #5D5D5D",
"9+	c #575757",
"0+	c #E7E7E7",
"a+	c #9C936B",
"b+	c #A89E73",
"c+	c #BEB382",
"d+	c #A1986E",
"e+	c #B1A779",
"f+	c #ABA175",
"g+	c #D7CA94",
"h+	c #B6AB7D",
"i+	c #C1B684",
"j+	c #C7BB89",
"k+	c #B8AD7E",
"l+	c #AAA075",
"m+	c #AEA477",
"n+	c #D3C791",
"o+	c #DED198",
"p+	c #C3B886",
"q+	c #B9AE7F",
"r+	c #DDD098",
"s+	c #C9BD8A",
"t+	c #D4C891",
"u+	c #BDB282",
"v+	c #9E956C",
"w+	c #CCC08C",
"x+	c #B4A97C",
"            . + @ # $ $ $ $ $ $ $ $ $ $ % # @ + .               ",
"          & * = $ $ - ; > > , > > , , ' $ $ $ ) * &             ",
"        ! ~ { $ ] ^ / ( ( _ : < [ } < | ( ( 1 2 $ $ !           ",
"      ! 3 % 4 $ 5 6 7 8 9 0 9 a b c d e f g g h / i $ !         ",
"    & ~ % j $ k l h [ m b n o p q r s r r n 2 a g g $ ~ &       ",
"  . * { 4 t $ u , v 8 e w x r y z z z A - p B c C g r $ * .     ",
"  + = D E F G $ > h ^ 0 H n r I u u J K L i p x M N r $ = +     ",
"O @ P Q R S T $ - > N [ U V W X Y L u L u X q Z M g r $ P @ O   ",
"` #  ...+.@.#.$.$ %.5 &.[ *.' =.-.Y ;.A i s p ' } g r $  .# `   ",
"* % Q >.G ,.'.).!.$ _ 5 > h *.%.w w ~.-.n x {.^ ].5 $ >.Q % * ^.",
"/.(.E _.:.<.[.}.|.1.$ ^ , , > 2.&.^ : 3.4.5.N > > Z $ _.E (./.6.",
"7. .8.9.T 0.a.b.c.$ $ d.e.f.e.g.f.e.h.f.i.a H ^ p $ T 9.8. .7.! ",
"j.j k.l.,.m.n.$ $ 0 o.e.g g h.e.p.h.g g q.r.s.t.$ m.,.l.k.j j.+ ",
"u.v.R G w.$.$ K ; x.y.z.h.g p.A.B.C.D.g A.E.F.0 $ $.w.G R v.u.G.",
"{ v.>.H.w.$.$ 7 o z.I.J.K.A.q.L.M.N.p.p.O.=.5.P.4.$ w.H.>.v.{ Q.",
"u.v.R G w.$ C R.;.y.S.e.A.p.T.U.V.W.X.O.N N Y.g g $ w.G R v.u.G.",
"j.j k.l.,.$ Z.`.Y. +.+++@+#+^ 6 R.].].5 $+g : g d s $ l.k.j j.+ ",
"7. .8.9.T $ %+&+*+=+-+1 ]./ ;+2.>+,+> l g g '+)+!+~+w $ 8. .7.! ",
"/.(.E _.:.$ f %+{+]+,+^+)+> /+(+_+:+<+5 > 6 v [+}+g |+1+E (./.6.",
"* % Q >.G ,.$ h a m '+0 *.Y.2+5 l &.6 ^ R.2+1 3+4+4+g &.$ % * ^.",
"` #  ...+.@.$ ].g m $ g : g $ 5+g Z C 2+> , l `.6+4+g 7+$ # `   ",
"O @ P Q R S $ > g 8+$ g _ g 9+$ 0+B 8 > > > > a+b+}+4+c+$ @ O   ",
"  + = D E $ d+=+7 P.=+:+e+, q m f N ^+f+g.-+> ;+7+4+`.o $ +     ",
"  . * { 4 $ g+h+, i+j+k+b+l+;+=+m+n+o+{+h+3., l ,+=+R.$ * .     ",
"    & ~ % $ !+f+$ $ $ p+{+2.q+_+!+o+r+s+h+a+, 5 &+-+$ ~ &       ",
"      ! 3 $ t+$ l (+q+$ u+$ $ $ t+g+n+$ m+a+$ $ $ % 3 !         ",
"        ! ~ Z $ &./ d+$ v+$ ( ^+$ c+$ g.$ , $ | { $ !           ",
"          & * $ &.].3+$ v $ v d $ 2.$ $ $ N $ = * $             ",
"            . $ -.l+w+$ x+$ R._ $ > $ m i # $ + . $             ",
"                $ $ $ ^ 1 $ $ $ 9 - d.$ $ ` $     $             ",
"                    ^.6.! $ G.Q.G.+ ! 6.^.                      ",
"                                                                "};
