/* XPM */
static char * open_xpm[] = {
"32 32 156 2",
"  	c None",
". 	c #000000",
"+ 	c #8E7F54",
"@ 	c #6E6341",
"# 	c #6D613F",
"$ 	c #6A603E",
"% 	c #675D3B",
"& 	c #665C39",
"* 	c #675C3A",
"= 	c #645A3A",
"- 	c #6A603F",
"; 	c #685C3B",
"> 	c #605536",
", 	c #5D5335",
"' 	c #584E32",
") 	c #544B2F",
"! 	c #534B2F",
"~ 	c #52492F",
"{ 	c #595034",
"] 	c #5F5538",
"^ 	c #685D3C",
"/ 	c #635939",
"( 	c #5D5336",
"_ 	c #574D32",
": 	c #49412A",
"< 	c #49422A",
"[ 	c #463F28",
"} 	c #534A31",
"| 	c #6C613F",
"1 	c #685D3D",
"2 	c #605639",
"3 	c #5C5236",
"4 	c #534930",
"5 	c #4E452C",
"6 	c #4B432B",
"7 	c #453D27",
"8 	c #8A7B51",
"9 	c #6E6340",
"0 	c #6C6140",
"a 	c #5D5337",
"b 	c #534C2F",
"c 	c #4A432A",
"d 	c #4C442B",
"e 	c #474029",
"f 	c #63583A",
"g 	c #695E3E",
"h 	c #605638",
"i 	c #655A3A",
"j 	c #A1915F",
"k 	c #645A3B",
"l 	c #5B5235",
"m 	c #A69562",
"n 	c #D4BF7D",
"o 	c #574E33",
"p 	c #403A26",
"q 	c #3F3925",
"r 	c #615638",
"s 	c #5C5234",
"t 	c #595032",
"u 	c #51492F",
"v 	c #413B27",
"w 	c #51482F",
"x 	c #464028",
"y 	c #463F29",
"z 	c #453F29",
"A 	c #453F28",
"B 	c #403A25",
"C 	c #918256",
"D 	c #726643",
"E 	c #443D28",
"F 	c #413B26",
"G 	c #CAB576",
"H 	c #AE9C66",
"I 	c #736844",
"J 	c #6F6441",
"K 	c #A79662",
"L 	c #908156",
"M 	c #B3A06A",
"N 	c #CEBA79",
"O 	c #B6A36C",
"P 	c #B7A46C",
"Q 	c #918155",
"R 	c #A99864",
"S 	c #B29F69",
"T 	c #908155",
"U 	c #BCA96F",
"V 	c #B7A56C",
"W 	c #958658",
"X 	c #978759",
"Y 	c #B3A068",
"Z 	c #D3BE7C",
"` 	c #B6A36B",
" .	c #908055",
"..	c #B4A16A",
"+.	c #948457",
"@.	c #928357",
"#.	c #5E5438",
"$.	c #6F6442",
"%.	c #8D7E53",
"&.	c #928356",
"*.	c #9E8E5D",
"=.	c #AE9C67",
"-.	c #716643",
";.	c #A59461",
">.	c #8F8054",
",.	c #908054",
"'.	c #9D8D5C",
").	c #9C8C5C",
"!.	c #A89763",
"~.	c #938356",
"{.	c #A08F5E",
"].	c #B6A46B",
"^.	c #A49362",
"/.	c #BCA86F",
"(.	c #D0BB7A",
"_.	c #B5A26B",
":.	c #8F8055",
"<.	c #9B8A5B",
"[.	c #B5A169",
"}.	c #A79663",
"|.	c #9F8E5D",
"1.	c #968758",
"2.	c #A89662",
"3.	c #7A6D48",
"4.	c #CBB778",
"5.	c #958659",
"6.	c #D3BE7D",
"7.	c #CFBA7A",
"8.	c #C4B072",
"9.	c #BBA96E",
"0.	c #B7A46B",
"a.	c #AF9C67",
"b.	c #99895A",
"c.	c #BDA96F",
"d.	c #928256",
"e.	c #D1BC7A",
"f.	c #BFAB70",
"g.	c #BBA76E",
"h.	c #958558",
"i.	c #CAB677",
"j.	c #C4B173",
"k.	c #C2AE71",
"l.	c #B2A069",
"m.	c #9A895B",
"n.	c #201D13",
"o.	c #8F7F54",
"p.	c #96875A",
"q.	c #A39260",
"r.	c #B29F68",
"s.	c #99895B",
"t.	c #978859",
"u.	c #020101",
"v.	c #85764E",
"w.	c #B6A26B",
"x.	c #938357",
"y.	c #8B7C52",
"                        . . . . . . . . . . .                   ",
"                      . + + + + + + + + + + + .                 ",
"                    . + @ @ # $ % & * = - @ + + .               ",
"                    . + @ ; > , ' ) ) ! ~ { ] @ + .             ",
"                    . + @ ^ % / ( _ : < [ } ] @ + .             ",
"                      . + | 1 2 3 4 5 6 < 7 { @ + .             ",
"                      . + 8 9 0 a b c d : e f @ + .             ",
"                        . . + + g h i j k l m + + .             ",
"                          . . + + + n + + n + + .               ",
"                      . . + + + ] ] m o p m q + .               ",
"                    . + + ] r s t u v q q q + + .               ",
"                  . + ] ] w x y z A B + + + C D .               ",
"                  . m + q E F q + + + C G H I J .               ",
"                  . n K + + + + L M N O P Q R S T .             ",
"                  . U V P R W X Y Z ` +  .....+.n @..           ",
"                    . q q ] #.$.%.+ + + &.*.=.-.X ;..           ",
"                    . >.2 q + ] q ] ] ,.'.j ).!.~.{..           ",
"                  . ].^./.(.U _.q q :.<.[.}.|.1.2.3..           ",
"                  . 4.5.6.7.` _._._.8.9.0.a.b._.+ .             ",
"                  . c.d.e.f.g.h...i.j.k.l.m.T . .               ",
"                    n.o.>.C >.C p.q.r.s.t.o.+ .                 ",
"                    u.v...g.w._.x.+.h.T + . .                   ",
"                      . . + + + :.y.. . .                       ",
"                          . . . . .                             ",
"                . . .                                           ",
"              .       .   . . .       .     . . .               ",
"              .       .   .     .   .   .   .     .             ",
"              .       .   .     .   . . .   .     .             ",
"              .       .   .     .   .       .     .             ",
"                . . .     . . .       . .   .     .             ",
"                          .                                     ",
"                                                                "};
