/* XPM */
static char * reference_act_xpm[] = {
"32 32 112 2",
"  	c None",
". 	c #E7D4D4",
"+ 	c #000000",
"@ 	c #EEAFAF",
"# 	c #F1A2A2",
"$ 	c #F1A1A0",
"% 	c #F1A5A1",
"& 	c #F1A7A3",
"* 	c #F0A9A4",
"= 	c #F0ABA4",
"- 	c #ECBDBD",
"; 	c #EAC7C7",
"> 	c #A38D47",
", 	c #F0ACA5",
"' 	c #F0AFA6",
") 	c #EFB2A8",
"! 	c #EFB5A9",
"~ 	c #EFB6A9",
"{ 	c #EFB7AA",
"] 	c #F1A2A0",
"^ 	c #F1A3A3",
"/ 	c #EEB3B3",
"( 	c #EBC1C1",
"_ 	c #EFAEAE",
": 	c #C1A959",
"< 	c #EFB2A7",
"[ 	c #EEBCAC",
"} 	c #EEC0AE",
"| 	c #EDC3AF",
"1 	c #EDC4B0",
"2 	c #EDC5B0",
"3 	c #42ADFF",
"4 	c #F1A6A2",
"5 	c #F1A09F",
"6 	c #EFACAC",
"7 	c #897531",
"8 	c #D1B866",
"9 	c #EDC9B2",
"0 	c #ECCDB4",
"a 	c #ECD0B5",
"b 	c #ECD2B6",
"c 	c #439EDB",
"d 	c #F0A9A3",
"e 	c #ECD5B7",
"f 	c #EBD9B9",
"g 	c #EBDCBA",
"h 	c #EBDEBB",
"i 	c #64BFFC",
"j 	c #7FCBFF",
"k 	c #EFB1A7",
"l 	c #7F6A27",
"m 	c #EAE0BC",
"n 	c #EAE5BE",
"o 	c #E9E8C0",
"p 	c #E9E8C2",
"q 	c #56B2EF",
"r 	c #2B84BF",
"s 	c #EEBBAC",
"t 	c #A89146",
"u 	c #BFAA67",
"v 	c #E9E8C3",
"w 	c #E8E8C7",
"x 	c #E8E7CB",
"y 	c #E8E7CD",
"z 	c #E8E7CE",
"A 	c #3899E2",
"B 	c #2483CC",
"C 	c #3697D8",
"D 	c #58B3EF",
"E 	c #EFB9AB",
"F 	c #E8D0D0",
"G 	c #876908",
"H 	c #E7E7D2",
"I 	c #E6E5DC",
"J 	c #E5E5E3",
"K 	c #84CEFF",
"L 	c #70BFF4",
"M 	c #FFFFFF",
"N 	c #EEC2AF",
"O 	c #ECBEBE",
"P 	c #83C4F7",
"Q 	c #49A6ED",
"R 	c #2481C9",
"S 	c #EEBDAD",
"T 	c #E7E7D0",
"U 	c #72BFF9",
"V 	c #59B4F9",
"W 	c #E6DBDB",
"X 	c #EFABAB",
"Y 	c #E5E5DE",
"Z 	c #44A3E2",
"` 	c #E9CCCC",
" .	c #F0A4A4",
"..	c #46A1DD",
"+.	c #F1A0A0",
"@.	c #F19F9F",
"#.	c #ECBABA",
"$.	c #848484",
"%.	c #6D6D6D",
"&.	c #EDB9B9",
"*.	c #CCCCCC",
"=.	c #DBDBDB",
"-.	c #B7B7B7",
";.	c #A3A3A3",
">.	c #A8A8A8",
",.	c #EDCAB3",
"'.	c #7C692B",
").	c #ECCEB5",
"!.	c #EBD6B8",
"~.	c #EAE6BE",
"{.	c #ECD4B7",
"].	c #EBDABA",
"            . + @ # $ % & * = = = * & % $ # @ - .               ",
"          ; + > + & , ' ) ! ~ { ~ ! ) ' + + ] ^ / ;             ",
"        ( _ + : + < { [ } | 1 2 1 | } + 3 3 + 4 5 _ (           ",
"      ( 6 + 7 8 8 + 1 9 0 a b b b a + 3 c c + ' d $ 6 (         ",
"    ; _ $ + > : 8 + a e f g h h h + i c j j 3 + k * $ _ ;       ",
"  . / 5 + 7 l > 8 8 + m n o p p p + q r j j 3 + s k d 5 / .     ",
"  - ^ 4 + 7 t u : 8 + v w x y z + 3 c j A B C D + E ' 4 ^ -     ",
"F @ ] + 7 t + G + 8 8 + H I J + i c K L 3 M M C + N ~ , ] @ F   ",
"O # & + + + + 7 + + + +     + 3 c P K L Q A M R 3 + S < & # O   ",
"/ $ , { 1 a + > + T J       + c j U V Q A A R R C + 1 { , $ / W ",
"X % ' [ 9 e + : + Y       + 3 r K K L 3 3 Z R A R 3 + [ ' % X ` ",
" .& ) } 0 f + 8 +       + 3 c j K L L L 3 3 3 Z M M ..+ ) &  .( ",
"+.* ! | a g + 8 +       + c r j L ..3 3 3 3 3 3 M M R + ! * +.- ",
"@.= ~ 1 b h + 8 +     + + + + L 3 ..C C C Z Z 3 C R R C + = @.#.",
"5 = { 2 b h + 8 +     + $.%.+ + + 3 Z Z R C R C C R M C + = 5 &.",
"@.= ~ 1 b h + 8 +   + *.=.+       + + + ..C R R R R M M Z + @.#.",
"+.* ! | a g + 8 +   + -.+               + + + + + Z C R C D + - ",
" .& ) } 0 f + 8 + + ;.>.+                   + 8 + + + + ..3 + ( ",
"X % ' [ 9 e + 8 + + %.+                   Y + > 8 8 + + + + X ` ",
"/ $ , { 1 a + : + + + + + + + + + + + + + + + + > : 8 8 + + / W ",
"O # & < S ,.+ > > : 8 8 8 8 8 8 8 8 8 8 : 7 '.l 7 > : > : 8 +   ",
"F @ ] , ~ N + + + + + + + + + + + + + + + + + + l 7 7 > + + F   ",
"  - ^ 4 ' E 1 ).!.h ~.v w x y z y x w v ~.h + l 7 l + + ^ -     ",
"  . / 5 d k s 1 0 {.].m n o p p p o n m ].{.+ 7 + + d 5 / .     ",
"    ; _ $ + + + N ,.a e f g h h + + f e a ,.+ + k * $ _ ;       ",
"      ( 6 + d ' + S 1 + + a b + b a 0 + + S ~ + d + + (         ",
"        ( + 5 4 + < + [ } + 1 + 1 | + [ { + , + + _ (           ",
"          + + + ] & + + + + ~ + + ! + + + + ] + / ;             ",
"          + . - + # + % & * = + = * + % $ # @ + .               ",
"          +     + O / + + + @.+ @.+. .+ + + F +     +           ",
"                    W ` ( - #.&.#.- ( ` W                       ",
"                                                                "};
