/* XPM */
static char * remove_xpm[] = {
"32 32 11 1",
" 	c None",
".	c #C6C9FF",
"+	c #8C91FF",
"@	c #2C2F82",
"#	c #000000",
"$	c #C7B990",
"%	c #9B9170",
"&	c #AA9E7A",
"*	c #857C60",
"=	c #FFFFFF",
"-	c #67604A",
"                                ",
"                                ",
"                                ",
"         .....................+ ",
"         .+++@.+++++++++++++++@ ",
"         .+.+@.+++++++++++++++@ ",
"         .+++@.+++++++++++++++@ ",
"         .@@@@@@@@@@@@@@@@@@@@@ ",
"         .####################@ ",
"     #########################@ ",
"   ##$$$$%$###################@ ",
"  #$$&&$%%$%##################@ ",
" #$&$$&&*%*%$######=##########@ ",
" #%&$&****-*$%###===##########@ ",
"#$&&**--$$%$$%#========#######@ ",
"#%%%*$$%%$%%%*###===##########@ ",
"#**%-$&&$&&$--#####=##########@ ",
" #**$$**$$%$**################@ ",
"  ###***&%*&*-################@ ",
"     #--*-&*##################@ ",
"      #*--####################@ ",
"       ###@@@@@@@@@@@@@@@@@@@@@ ",
"                                ",
"                                ",
"  ###                           ",
"  #  #  ##  ## #   ##  # #  ##  ",
"  #  # #  # # # # #  # # # #  # ",
"  ###  #### # # # #  # # # #### ",
"  #  # #    # # # #  #  #  #    ",
"  #  #  ### # # #  ##   #   ### ",
"                                ",
"                                "};
