/* XPM */
static char * roi_xpm[] = {
"32 32 200 2",
"  	c None",
". 	c #35393D",
"+ 	c #35383D",
"@ 	c #373B41",
"# 	c #393D43",
"$ 	c #363A3E",
"% 	c #2E3136",
"& 	c #2C2F33",
"* 	c #69717C",
"= 	c #818B98",
"- 	c #303337",
"; 	c #464B53",
"> 	c #2F3237",
", 	c #474D54",
"' 	c #33363A",
") 	c #2A2C2F",
"! 	c #35393E",
"~ 	c #494E55",
"{ 	c #707984",
"] 	c #383D42",
"^ 	c #27292C",
"/ 	c #555B63",
"( 	c #34383E",
"_ 	c #5A616A",
": 	c #717A85",
"< 	c #42474E",
"[ 	c #282A2E",
"} 	c #34373C",
"| 	c #292C30",
"1 	c #282B2F",
"2 	c #79828F",
"3 	c #94A0B2",
"4 	c #2A2D32",
"5 	c #4B5057",
"6 	c #5B616A",
"7 	c #222529",
"8 	c #3B3E43",
"9 	c #393D41",
"0 	c #2C3034",
"a 	c #484D54",
"b 	c #7A8390",
"c 	c #7A8490",
"d 	c #3D4247",
"e 	c #3C4146",
"f 	c #40444A",
"g 	c #616872",
"h 	c #68707A",
"i 	c #3D4045",
"j 	c #3E4249",
"k 	c #2B2E33",
"l 	c #6D7681",
"m 	c #676F79",
"n 	c #2B2E32",
"o 	c #36393E",
"p 	c #34373B",
"q 	c #636A75",
"r 	c #3F444B",
"s 	c #24272A",
"t 	c #727B87",
"u 	c #676E79",
"v 	c #79828E",
"w 	c #545B64",
"x 	c #3E4349",
"y 	c #6A727D",
"z 	c #3B3F46",
"A 	c #121415",
"B 	c #2D3034",
"C 	c #6F7783",
"D 	c #535961",
"E 	c #69717B",
"F 	c #727A85",
"G 	c #7C8592",
"H 	c #7B8591",
"I 	c #808A97",
"J 	c #5B626A",
"K 	c #020303",
"L 	c #383C41",
"M 	c #555B64",
"N 	c #5E656E",
"O 	c #626973",
"P 	c #68717B",
"Q 	c #7F8996",
"R 	c #1F2124",
"S 	c #191A1C",
"T 	c #141618",
"U 	c #383C42",
"V 	c #646B75",
"W 	c #5D646E",
"X 	c #464C53",
"Y 	c #545A63",
"Z 	c #525861",
"` 	c #3A3E44",
" .	c #34383D",
"..	c #070708",
"+.	c #373B40",
"@.	c #5C636C",
"#.	c #606771",
"$.	c #727A86",
"%.	c #393C41",
"&.	c #333639",
"*.	c #2E3134",
"=.	c #26282B",
"-.	c #323538",
";.	c #35393F",
">.	c #6C747F",
",.	c #585E67",
"'.	c #5E656F",
").	c #222427",
"!.	c #323539",
"~.	c #383B3E",
"{.	c #616973",
"].	c #686F7A",
"^.	c #26282C",
"/.	c #373B3F",
"(.	c #202326",
"_.	c #51575F",
":.	c #1E2023",
"<.	c #585F68",
"[.	c #626A74",
"}.	c #373A3E",
"|.	c #17191B",
"1.	c #17181A",
"2.	c #494E56",
"3.	c #212327",
"4.	c #454A52",
"5.	c #646C76",
"6.	c #27292D",
"7.	c #2C2E31",
"8.	c #222428",
"9.	c #3F444A",
"0.	c #636B75",
"a.	c #1C1E21",
"b.	c #070808",
"c.	c #303439",
"d.	c #5F6770",
"e.	c #24262A",
"f.	c #2C2F32",
"g.	c #2F3235",
"h.	c #202225",
"i.	c #6A727C",
"j.	c #6E7783",
"k.	c #5D646D",
"l.	c #3C4046",
"m.	c #292C2E",
"n.	c #52585F",
"o.	c #191B1D",
"p.	c #5B626B",
"q.	c #656C76",
"r.	c #5A6069",
"s.	c #4F565E",
"t.	c #111214",
"u.	c #151719",
"v.	c #444950",
"w.	c #3C4147",
"x.	c #3E4248",
"y.	c #5B636C",
"z.	c #7D8793",
"A.	c #4A4F57",
"B.	c #24272B",
"C.	c #4D535B",
"D.	c #313439",
"E.	c #545A62",
"F.	c #484E55",
"G.	c #25282C",
"H.	c #373A40",
"I.	c #7C8693",
"J.	c #59616A",
"K.	c #222528",
"L.	c #585E66",
"M.	c #34393E",
"N.	c #4B5058",
"O.	c #454951",
"P.	c #1A1C1E",
"Q.	c #454B52",
"R.	c #757E8A",
"S.	c #40454B",
"T.	c #303338",
"U.	c #4A4F56",
"V.	c #1D1F22",
"W.	c #545B63",
"X.	c #141517",
"Y.	c #464B52",
"Z.	c #131415",
"`.	c #7F8895",
" +	c #707985",
".+	c #131416",
"++	c #41454C",
"@+	c #7D8794",
"#+	c #2E3235",
"$+	c #666D77",
"%+	c #3B3E44",
"&+	c #474C53",
"*+	c #303339",
"=+	c #2A2C30",
"-+	c #33363B",
";+	c #32353B",
">+	c #363A40",
",+	c #3A3F44",
"'+	c #232529",
")+	c #4C5258",
"                                                                ",
"                                        . + @ # $               ",
"                                      % & * = = -               ",
"                                    ; > , = = ' )               ",
"                                    ! ~ { = ] ^         /       ",
"                                    ( _ : < [           }       ",
"                                  | 1 2 3 4 5       6 7 8 9     ",
"                                  0 a b c d e     f d g h i     ",
"                                  j k l = m n o p @ q = r o     ",
"                                    s t u = v w x y = = z       ",
"                                  A B C D E F G H = I J K       ",
"                                A L = 6 M N O P : Q J R S       ",
"                              T U 6 V W = = X Y Z `  ...        ",
"                            ) +.@.#.$.= = n %.&.&.*.=.          ",
"                          -.;.>.,.'.= = ).!.                    ",
"                        ~.).{.].g = = ^./.                      ",
"                      (.p = = O = _.o                           ",
"                    :.:.<.= [.= ].}.                            ",
"          B |.1.# 2.3.4.= * 5.= 6.7.                            ",
"      ) 8.9.= 0.a.b.c.= d.* = e.f.                              ",
"    g.h.i.= = = j.g 0.k.N = l.m.                                ",
"  n.o.p.= = = = = = q.,.r.s.t.                                  ",
"  u.v.= = m w.x.y.= = z.A.B.C.                                  ",
"  D.E.= F.[ G.4 x.H.= I.J.K.L.                                  ",
"  M.N.O.P.      Q.a R.= S.T.U.                                  ",
"  V.8.D.        n ] R.= W.X.Y.                                  ",
"    Z.        Y.u.9.= `. +P.                                    ",
"            4 .+++= @+H 9.#+                                    ",
"          $+%+D.&+t p.*+=+                                      ",
"            -+;+` >+,+'+D                                       ",
"                k.E.)+                                          ",
"                                                                "};
