/* XPM */
static char * trackball_select_xpm[] = {
"32 32 126 2",
"  	c None",
". 	c #BDBDBD",
"+ 	c #B6B6B6",
"@ 	c #ADADAD",
"# 	c #DEDEDE",
"$ 	c #DBDBDB",
"% 	c #D6D6D6",
"& 	c #C4C4C4",
"* 	c #BBBBBB",
"= 	c #B7B7B7",
"- 	c #AEAEAE",
"; 	c #9D9D9D",
"> 	c #E3E3E3",
", 	c #EEEEEE",
"' 	c #EFEFEF",
") 	c #E6E6E6",
"! 	c #D3D3D3",
"~ 	c #C6C6C6",
"{ 	c #BCBCBC",
"] 	c #A5A5A5",
"^ 	c #E5E5E5",
"/ 	c #ECECEC",
"( 	c #FDFDFD",
"_ 	c #FFFFFF",
": 	c #FEFEFE",
"< 	c #F7F7F7",
"[ 	c #E9E9E9",
"} 	c #D5D5D5",
"| 	c #CFCFCF",
"1 	c #BABABA",
"2 	c #ABABAB",
"3 	c #939393",
"4 	c #EDEDED",
"5 	c #FCFCFC",
"6 	c #E4E4E4",
"7 	c #BFBFBF",
"8 	c #D4D4D4",
"9 	c #CECECE",
"0 	c #B3B3B3",
"a 	c #A4A4A4",
"b 	c #929292",
"c 	c #7B7B7B",
"d 	c #FAFAFA",
"e 	c #E7E7E7",
"f 	c #F5F5F5",
"g 	c #DCDCDC",
"h 	c #D8D8D8",
"i 	c #C9C9C9",
"j 	c #C0C0C0",
"k 	c #A6A6A6",
"l 	c #F2F2F2",
"m 	c #EBEBEB",
"n 	c #E1E1E1",
"o 	c #D0D0D0",
"p 	c #C7C7C7",
"q 	c #B5B5B5",
"r 	c #AFAFAF",
"s 	c #A8A8A8",
"t 	c #9E9E9E",
"u 	c #969696",
"v 	c #878787",
"w 	c #C5C5C5",
"x 	c #F4F4F4",
"y 	c #D2D2D2",
"z 	c #CBCBCB",
"A 	c #949494",
"B 	c #828282",
"C 	c #737373",
"D 	c #DDDDDD",
"E 	c #F1F1F1",
"F 	c #B1B1B1",
"G 	c #A3A3A3",
"H 	c #818181",
"I 	c #636363",
"J 	c #D1D1D1",
"K 	c #000000",
"L 	c #A0A0A0",
"M 	c #757575",
"N 	c #C3C3C3",
"O 	c #B8B8B8",
"P 	c #B2B2B2",
"Q 	c #A7A7A7",
"R 	c #A1A1A1",
"S 	c #9C9C9C",
"T 	c #8B8B8B",
"U 	c #777777",
"V 	c #696969",
"W 	c #B4B4B4",
"X 	c #CACACA",
"Y 	c #C2C2C2",
"Z 	c #727272",
"` 	c #565656",
" .	c #A9A9A9",
"..	c #ACACAC",
"+.	c #9A9A9A",
"@.	c #989898",
"#.	c #909090",
"$.	c #3D3D3D",
"%.	c #B0B0B0",
"&.	c #A2A2A2",
"*.	c #919191",
"=.	c #7C7C7C",
"-.	c #494949",
";.	c #242424",
">.	c #9B9B9B",
",.	c #787878",
"'.	c #484848",
").	c #353535",
"!.	c #9F9F9F",
"~.	c #888888",
"{.	c #6D6D6D",
"].	c #3B3B3B",
"^.	c #959595",
"/.	c #676767",
"(.	c #4B4B4B",
"_.	c #979797",
":.	c #444444",
"<.	c #717171",
"[.	c #626262",
"}.	c #6F6F6F",
"|.	c #4E4E4E",
"1.	c #616161",
"2.	c #7A7A7A",
"3.	c #282828",
"4.	c #212121",
"5.	c #606060",
"                                                                ",
"                                                                ",
"                                                                ",
"                                                                ",
"                        . . . . . . + @                         ",
"                  # # $ % % % % % & * = - ;                     ",
"                > , ' ' ' ' ) # # ! ~ { + - ]                   ",
"              ^ / ( _ _ : < [ $ } $ | . . 1 2 3                 ",
"            # 4 _ : : _ 5 6 # } 7 8 9 . . 0 a b c               ",
"            # 4 d e f _ 5 6 # g h i j . . 0 2 k 3               ",
"          . i > 5 l , / m n 8 o # 8 p * q r s t u v             ",
"          . w g x x 4 ^ # # y z ! ! i * 0 r a A A B C           ",
"          . } D $ # E E # $ D } . . . . { F G u b H C         I ",
"          . } J p $ n n $ K K } . . . * F L t ] H M C           ",
"          0 N & N $ J J D K _ K . . O P - Q R S T U V           ",
"          @ W 1 j X Y & J K _ _ K . + 2 a G t A A Z `           ",
"           ...W * F O { * K _ _ _ K W  .+.@.u A #.I $.          ",
"          u Q W . { { O %.K _ _ _ _ K @ 2 2 &.*.=.-.;.          ",
"      K     >.k W { + %.@ K _ _ _ _ _ K S S *.,.'.).    K       ",
"      K     A !.@ ..k k @ K _ _ _ _ _ _ K A ~.{.].      K       ",
"    K K K   A >.!.^.A >. .K _ _ _ _ _ _ _ K H /.(.    K K K     ",
"    K K K       c *.A A _.K _ _ _ _ _ _ _ _ K :.      K K K     ",
"  K K K K K       <.[.}.3 K _ _ _ _ _ K K K K K     K K K K K   ",
"  K K K K K         |.1.2.K _ _ _ _ _ K 3.4.        K K K K K   ",
"K K K K K K K           5.K _ _ K K _ _ K         K K K K K K K ",
"K K   K   K K             K _ K   K _ _ K         K K   K   K K ",
"      K K                 K K       K _ _ K           K K       ",
"      K K K               K         K _ _ K         K K K       ",
"        K K K K                       K _ _ K   K K K K         ",
"        K K K                         K _ _ K     K K K         ",
"          K                             K K K       K           ",
"                                                                "};
