/* XPM */
static char * window_Profile_active_xpm[] = {
"32 32 79 1",
" 	c None",
".	c #E7D4D4",
"+	c #ECBDBD",
"@	c #EEAFAF",
"#	c #F1A2A2",
"$	c #F1A1A0",
"%	c #F1A5A1",
"&	c #F1A7A3",
"*	c #F0A9A4",
"=	c #F0ABA4",
"-	c #EAC7C7",
";	c #EEB3B3",
">	c #F1A3A3",
",	c #F1A2A0",
"'	c #F0ACA5",
")	c #F0AFA6",
"!	c #EFB2A8",
"~	c #EFB5A9",
"{	c #EFB6A9",
"]	c #EFB7AA",
"^	c #EBC1C1",
"/	c #EFAEAE",
"(	c #F1A09F",
"_	c #F1A6A2",
":	c #EFB2A7",
"<	c #EEBCAC",
"[	c #EEC0AE",
"}	c #EDC3AF",
"|	c #EDC4B0",
"1	c #EDC5B0",
"2	c #EFACAC",
"3	c #C6C9FF",
"4	c #8C91FF",
"5	c #2C2F82",
"6	c #F0A9A3",
"7	c #E8D0D0",
"8	c #ECBEBE",
"9	c #EEBDAD",
"0	c #FFFFFF",
"a	c #FF0000",
"b	c #E6DBDB",
"c	c #EFABAB",
"d	c #EDC9B2",
"e	c #E9CCCC",
"f	c #F0A4A4",
"g	c #ECCDB4",
"h	c #F1A0A0",
"i	c #ECD0B5",
"j	c #005DFF",
"k	c #F19F9F",
"l	c #ECD2B6",
"m	c #ECBABA",
"n	c #EDB9B9",
"o	c #94ADFF",
"p	c #035EFF",
"q	c #EFB9AB",
"r	c #ECCEB5",
"s	c #EBD6B8",
"t	c #EBDEBB",
"u	c #EAE6BE",
"v	c #E9E8C3",
"w	c #E8E8C7",
"x	c #E8E7CB",
"y	c #E8E7CD",
"z	c #E8E7CE",
"A	c #EFB1A7",
"B	c #EEBBAC",
"C	c #ECD4B7",
"D	c #EBDABA",
"E	c #EAE0BC",
"F	c #EAE5BE",
"G	c #E9E8C0",
"H	c #E9E8C2",
"I	c #000000",
"J	c #EEC2AF",
"K	c #EDCAB3",
"L	c #ECD5B7",
"M	c #EBD9B9",
"N	c #EBDCBA",
"      .+@#$%&*===*&%$#@+.       ",
"     -;>,&')!~{]{~!)'&,>;-      ",
"    ^/(_':]<[}|1|}[<]:'_(/^     ",
"   ^23333333333333333333334^    ",
"  -/$3444534444444444444445/-   ",
" .;(63434534444444444444445(;.  ",
" +>_)3444534444444444444445_>+  ",
"7@,'{3555555555555555555555',@7 ",
"8#&:9300000000aaaaa00000005:&#8 ",
";$']|3000000aaaaaaaa0000005]'$;b",
"c%)<d30000aaaaaaaaaaa000005<)%ce",
"f&![g3000aaaaa00000aaa00005[!&f^",
"h*~}i300aaa0000jjj00aaa0005}~*h+",
"k={|l30aaa0000jjjjj00aaa005|{=km",
"(=]1l3aaa0000jjj0jjj00aaa051]=(n",
"k={|l3aa0000jjj000jjj00aaa5|{=km",
"h*~}i3a0000jjj00000jjj00aa5}~*h+",
"f&![g30000jjj0000000jjj0005[!&f^",
"c%)<d3jjjjjj000000000jjjjj5<)%ce",
";$']|ojpjjj00000000000jjjj5]'$;b",
"8#&:93000000000000000000005:&#8 ",
"7@,'{4555555555555555555555',@7 ",
" +>_)q|rstuvwxyzyxwvutsr|q)_>+  ",
" .;(6AB|gCDEFGHHHGFEDCg|BA6(;.  ",
"  -IIIIqJKiLMNtttNMIIKIqI*$/-   ",
"   ^I$6I{I|IIiIIliId|9{)I$2II   ",
"    III_'II<[I|1I}I<]:I_I/I  I  ",
"    I-;>,I')!I{]I~III&I>I-IIII  ",
"    I .+@I$%&I==I*I%$#I+I I     ",
"    I   7I;cfhIIkhIc;8I I  III  ",
"          be^+mnm+^eb           ",
"                                "};
