/* XPM */
static char * list_winSagittal_pm[] = {
/* width height ncolors cpp [x_hot y_hot] */
"22 19 8 1 0 0",
/* colors */
" 	s iconGray1	m white	c #dededededede",
".	c #B0B0B0B0C2C2",
"X	s iconGray3	m white	c #adadadadadad",
"o	s iconGray4	m white	c #949494949494",
"O	s iconColor1	m black	c black",
"+	s iconGray2	m white	c #bdbdbdbdbdbd",
"@	s iconGray7	m black	c #424242424242",
"#	s iconGray6	m black	c #636363636363",
/* pixels */
"                     .",
" XXXo XXXXXXXXXXXXXXXo",
" X Xo XXXXXXXXXXXXXXXo",
" XXXo XXXXXXXXXXXXXXXo",
" ooooooooooooooooooooo",
" OOOOOOOOOOOOOOOOOOOOo",
" OOOOOO+o++++o+oOOOOOo",
" OOOOOo@@###@##o+OOOOo",
" OOOO++#o+XXoXo#@oOOOo",
" OOO+#o+   + +oo##OOOo",
" OOOo#XX ++ + +o#oOOOo",
" OOOX#@X  oX  oo#+OOOo",
" OOOO+@o+ Xo ###@+OOOo",
" OOOOo@#oo+X#XXo@oOOOo",
" OO+o@@#@#o+XX##+OOOOo",
" O+o+#@@@#o o#++OOOOOo",
" OOOOO+#@#o o++++OOOOo",
" OOOOOOOOOOOOOOOOOOOOo",
".ooooooooooooooooooooo"};
