/* XPM */
static char * list_win3D_pm[] = {
/* width height ncolors cpp [x_hot y_hot] */
"22 19 6 1 0 0",
/* colors */
" 	s iconGray1	m white	c #dededededede",
".	s iconGray2	m white	c #bdbdbdbdbdbd",
"X	s iconGray3	m white	c #adadadadadad",
"o	s iconGray4	m white	c #949494949494",
"O	s iconColor1	m black	c black",
"+	s iconColor2	m white	c white",
/* pixels */
"                     .",
" XXXo XXXXXXXXXXXXXXXo",
" X Xo XXXXXXXXXXXXXXXo",
" XXXo XXXXXXXXXXXXXXXo",
" ooooooooooooooooooooo",
" OOOOOOOOOOOOOOOOOOOOo",
" OOOOOOOOOO+OOOOOOOOOo",
" OOOOOOOOO++oOOOOOOOOo",
" OOOOOOOO+++oOOOOOOOOo",
" OOOOOOO++++ooOOOOOOOo",
" OOOOOO++++ooooOOOOOOo",
" OOOOO+++++ooooOOOOOOo",
" OOOO++++++oooooOOOOOo",
" OOOO+++++oooooooOOOOo",
" OOOOO++++ooooooOOOOOo",
" OOOOOO+++ooooOOOOOOOo",
" OOOOOOO++ooOOOOOOOOOo",
" OOOOOOOOOOOOOOOOOOOOo",
".ooooooooooooooooooooo"};
