/* XPM */
static char * list_winAxial_pm[] = {
/* width height ncolors cpp [x_hot y_hot] */
"22 19 9 1 0 0",
/* colors */
" 	s iconGray1	m white	c #dededededede",
".	c #B0B0B0B0C2C2",
"X	s iconGray3	m white	c #adadadadadad",
"o	s iconGray4	m white	c #949494949494",
"O	s iconColor1	m black	c black",
"+	s iconGray2	m white	c #bdbdbdbdbdbd",
"@	s iconGray6	m black	c #636363636363",
"#	s iconGray7	m black	c #424242424242",
"$	s iconGray5	m black	c #737373737373",
/* pixels */
"                     .",
" XXXo XXXXXXXXXXXXXXXo",
" X Xo XXXXXXXXXXXXXXXo",
" XXXo XXXXXXXXXXXXXXXo",
" ooooooooooooooooooooo",
" OOOOOOo+XXXXX@OOOOOOo",
" OOOOO+@@@#O@@@XOOOOOo",
" OOOOo@@XX#XXX@+OOOOOo",
" OOOO+#X +@o  X@+OOOOo",
" OOOX@o+##@+#oX@XOOOOo",
" OOO+#+ +#o#+  @+OOOOo",
" OOO+@o+ ###o+X@XOOOOo",
" OOOo@X+##+##oX@+OOOOo",
" OOOO+@ + #++ +@+OOOOo",
" OOOO+O+oo#o oX@oOOOOo",
" OOOOX@X X@+XX@@@OOOOo",
" OOOOO+@@o##@O+oOOOOOo",
" OOOOO$o@@XX+o@$OOOOOo",
".ooooooooooooooooooooo"};
