/* XPM */
static char * coronal_act_xpm[] = {
"32 32 81 1",
" 	c None",
".	c #E7D4D4",
"+	c #ECBDBD",
"@	c #EEAFAF",
"#	c #F1A2A2",
"$	c #F1A1A0",
"%	c #F1A5A1",
"&	c #F1A7A3",
"*	c #F0A9A4",
"=	c #F0ABA4",
"-	c #EAC7C7",
";	c #EEB3B3",
">	c #F1A3A3",
",	c #F1A2A0",
"'	c #F0ACA5",
")	c #F0AFA6",
"!	c #EFB2A8",
"~	c #EFB5A9",
"{	c #EFB6A9",
"]	c #EFB7AA",
"^	c #EBC1C1",
"/	c #EFAEAE",
"(	c #F1A09F",
"_	c #F1A6A2",
":	c #EFB2A7",
"<	c #EEBCAC",
"[	c #EEC0AE",
"}	c #EDC3AF",
"|	c #EDC4B0",
"1	c #EDC5B0",
"2	c #EFACAC",
"3	c #C6C9FF",
"4	c #8C91FF",
"5	c #2C2F82",
"6	c #F0A9A3",
"7	c #E8D0D0",
"8	c #ECBEBE",
"9	c #EEBDAD",
"0	c #000000",
"a	c #949494",
"b	c #ADADAD",
"c	c #BDBDBD",
"d	c #424242",
"e	c #636363",
"f	c #E6DBDB",
"g	c #EFABAB",
"h	c #EDC9B2",
"i	c #DEDEDE",
"j	c #E9CCCC",
"k	c #F0A4A4",
"l	c #ECCDB4",
"m	c #212121",
"n	c #F1A0A0",
"o	c #ECD0B5",
"p	c #F19F9F",
"q	c #ECD2B6",
"r	c #ECBABA",
"s	c #EDB9B9",
"t	c #EFB9AB",
"u	c #ECCEB5",
"v	c #EBD6B8",
"w	c #EBDEBB",
"x	c #EAE6BE",
"y	c #E9E8C3",
"z	c #E8E8C7",
"A	c #E8E7CB",
"B	c #E8E7CD",
"C	c #E8E7CE",
"D	c #EFB1A7",
"E	c #EEBBAC",
"F	c #ECD4B7",
"G	c #EBDABA",
"H	c #EAE0BC",
"I	c #EAE5BE",
"J	c #E9E8C0",
"K	c #E9E8C2",
"L	c #EEC2AF",
"M	c #EDCAB3",
"N	c #ECD5B7",
"O	c #EBD9B9",
"P	c #EBDCBA",
"      .+@#$%&*===*&%$#@+.       ",
"     -;>,&')!~{]{~!)'&,>;-      ",
"    ^/(_':]<[}|1|}[<]:'_(/^     ",
"   ^23333333333333333333334^    ",
"  -/$3444534444444444444445/-   ",
" .;(63434534444444444444445(;.  ",
" +>_)3444534444444444444445_>+  ",
"7@,'{3555555555555555555555',@7 ",
"8#&:9300000abbcbcbb00000005:&#8 ",
";$']|30000bdddadeadeb000005]'$;f",
"g%)<h3000beeaebeebiaec00005<)%gj",
"k&![l3000amabciaaiibada0005[!&k^",
"n*~}o3000beaiiibaiiiceb0005}~*n+",
"p={|q300aeabciceabiiaea0005|{=pr",
"(=]1q300bddaciaeeaaceda00051]=(s",
"p={|q300cdeeaeeadeeceddb005|{=pr",
"n*~}o300aeabicaeeaccbaea005}~*n+",
"k&![l300bmacice00eaibam0005[!&k^",
"g%)<h3000adaaa000dbbadb0005<)%gj",
";$']|30000b0e000000e0b00005]'$;f",
"8#&:93000000000000000000005:&#8 ",
"7@,'{4555555555555555555555',@7 ",
" +>_)t|uvwxyzABCBAzyxwvu|t)_>+  ",
" .;(6DE|lFGHIJKKKJIHGFl|ED6(;.  ",
"  000*DtLMoNOPwwwPONoMLtD*$/- 0 ",
" 0 ^206)00|h0o0q00lh090)600^  0 ",
" 0  ^/(0':0<00|0|}0<00'0(/^0  0 ",
" 0   -;0,&0)0~{0{~0)0&,0;000  0 ",
" 0   0.0@#0%0*=0=*0%0#@00  0  0 ",
"  000   00;g0np(00kg0870 00 0 0 ",
"          fj^+rsr+^jf           ",
"                                "};
