/* XPM */
static char * 3d_act_xpm[] = {
"32 32 89 1",
" 	c None",
".	c #E7D4D4",
"+	c #ECBDBD",
"@	c #EEAFAF",
"#	c #F1A2A2",
"$	c #F1A1A0",
"%	c #F1A5A1",
"&	c #F1A7A3",
"*	c #F0A9A4",
"=	c #F0ABA4",
"-	c #EAC7C7",
";	c #EEB3B3",
">	c #F1A3A3",
",	c #F1A2A0",
"'	c #F0ACA5",
")	c #F0AFA6",
"!	c #EFB2A8",
"~	c #EFB5A9",
"{	c #EFB6A9",
"]	c #EFB7AA",
"^	c #EBC1C1",
"/	c #EFAEAE",
"(	c #F1A09F",
"_	c #F1A6A2",
":	c #EFB2A7",
"<	c #EEBCAC",
"[	c #EEC0AE",
"}	c #EDC3AF",
"|	c #EDC4B0",
"1	c #EDC5B0",
"2	c #EFACAC",
"3	c #C6C9FF",
"4	c #8C91FF",
"5	c #2C2F82",
"6	c #F0A9A3",
"7	c #FFFFFF",
"8	c #949494",
"9	c #E8D0D0",
"0	c #8E8E8E",
"a	c #ECBEBE",
"b	c #EEBDAD",
"c	c #212121",
"d	c #F2F2F2",
"e	c #686868",
"f	c #EAEAEA",
"g	c #B2B2B2",
"h	c #E6DBDB",
"i	c #EFABAB",
"j	c #EDC9B2",
"k	c #C4C4C4",
"l	c #707070",
"m	c #6B6B6B",
"n	c #E9CCCC",
"o	c #F0A4A4",
"p	c #ECCDB4",
"q	c #9B9B9B",
"r	c #F1A0A0",
"s	c #ECD0B5",
"t	c #AAAAAA",
"u	c #898989",
"v	c #F19F9F",
"w	c #ECD2B6",
"x	c #DBDBDB",
"y	c #ECBABA",
"z	c #EDB9B9",
"A	c #828282",
"B	c #848484",
"C	c #757575",
"D	c #7F7F7F",
"E	c #EFB9AB",
"F	c #ECCEB5",
"G	c #EBD6B8",
"H	c #EBDEBB",
"I	c #EAE6BE",
"J	c #E9E8C3",
"K	c #E8E8C7",
"L	c #E8E7CB",
"M	c #E8E7CD",
"N	c #EFB1A7",
"O	c #EEBBAC",
"P	c #ECD4B7",
"Q	c #EBDABA",
"R	c #EAE0BC",
"S	c #EAE5BE",
"T	c #E9E8C0",
"U	c #E9E8C2",
"V	c #EEC2AF",
"W	c #EDCAB3",
"X	c #000000",
"      .+@#$%&*===*&%$#@+.       ",
"     -;>,&')!~{]{~!)'&,>;-      ",
"    ^/(_':]<[}|1|}[<]:'_(/^     ",
"   ^23333333333333333333334^    ",
"  -/$3444534444444444444445/-   ",
" .;(63434534444478444444445(;.  ",
" +>_)3444534444778444444445_>+  ",
"9@,'{3555555557770855555555',@9 ",
"a#&:b3ccccccc7d770eccccccc5:&#a ",
";$']|3cccccc7ff77g78cccccc5]'$;h",
"i%)<j3ccccc7ffd7k8lmcccccc5<)%in",
"o&![p3cccc7dffd7gq778ccccc5[!&o^",
"r*~}s3ccc7dffd77gtu7eccccc5}~*r+",
"v={|w3cc7dfxfd778tuem8cccc5|{=vy",
"(=]1w3c7dfxxfd778tq77mcccc51]=(z",
"v={|w3cc7dffxd778ttu7m8ccc5|{=vy",
"r*~}s3ccc7dfdd7k8tq0llAccc5}~*r+",
"o&![p3cccc7dfd7g8tqAB7l8cc5[!&o^",
"i%)<j3ccccc7d77gqtACCl8ccc5<)%in",
";$']|3cccccc777tqDC08ccccc5]'$;h",
"a#&:b3ccccccc778t88ccccccc5:&#a ",
"9@,'{4555555557885555555555',@9 ",
" +>_)E|FGHIJKLM8MLKJIHGF|E)_>+  ",
" .;(6NO|pPQRSTUUUTSRQPp|ON6(;.  ",
"  -/$*NEVWsXXXHHXXXXsWVEN*$/-   ",
"   ^2$6){bXjpsXwXspjXb{)6$2^    ",
"    ^/(_':]<[X|1X}[<X:'_(/^     ",
"     -;>,&')!~X]X~!)X&,>;-      ",
"      .+@#X%&*X=X*&%X#@+.       ",
"        9a;XXXv(XXXX;a9         ",
"          hn^+yzy+^nh           ",
"                                "};
