/* XPM */
static char * window_values_large_xpm[] = {
"32 32 10 1",
" 	c None",
".	c #C6C9FF",
"+	c #8C91FF",
"@	c #2C2F82",
"#	c #FFFFFF",
"$	c #0759CF",
"%	c #BC8830",
"&	c #DA0000",
"*	c #43B419",
"=	c #000000",
"                                ",
"                                ",
"                                ",
"     .....................+     ",
"     .+++@.+++++++++++++++@     ",
"     .+.+@.+++++++++++++++@     ",
"     .+++@.+++++++++++++++@     ",
"     .@@@@@@@@@@@@@@@@@@@@@     ",
"     .####################@     ",
"     .####################@     ",
"     .####################@     ",
"     .##############$$####@     ",
"     .######%%######$$####@     ",
"     .######%%######$$####@     ",
"     .######%%######$$####@     ",
"     .##&&##%%######$$####@     ",
"     .##&&##%%##**##$$####@     ",
"     .##&&##%%##**##$$####@     ",
"     .##&&##%%##**##$$####@     ",
"     .##&&##%%##**##$$####@     ",
"     .##&&##%%##**##$$####@     ",
"     +@@@@@@@@@@@@@@@@@@@@@     ",
"                                ",
"                                ",
"   =   =      =                 ",
"   =   = ===  = =  =  ==   ===  ",
"   =   =    = = =  = =  = =     ",
"    = =   === = =  = ====  ==   ",
"    = =  =  = = =  = =       =  ",
"     =    === =  ===  === ===   ",
"                                ",
"                                "};
