/* XPM */
static char * window_histogram_small_xpm[] = {
"21 19 8 1",
" 	c None",
".	c #C6C9FF",
"+	c #8C91FF",
"@	c #2C2F82",
"#	c #FFFFFF",
"$	c #090D58",
"%	c #373CA4",
"&	c #5A5FC9",
".....................",
".+++@.+++++++++++++++",
".+.+@.+++++++++++++++",
".+++@.+++++++++++++++",
".@@@@@@@@@@@@@@@@@@@@",
".####################",
".#+#########$%&####+#",
".#+#########$%&####+#",
".#+###$%&###$%&####+#",
".#+###$%&###$%&####+#",
".#+###$%&###$%&####+#",
".#+###$%&###$%&$%&#+#",
".#+$%&$%&###$%&$%&#+#",
".#+$%&$%&###$%&$%&#+#",
".#+$%&$%&$%&$%&$%&#+#",
".#+$%&$%&$%&$%&$%&#+#",
".#++++++++++++++++++#",
".####################",
"+@@@@@@@@@@@@@@@@@@@@"};
