/* XPM */
static char * browser_act_xpm[] = {
"32 32 96 2",
"  	c None",
". 	c #E7D4D4",
"+ 	c #ECBDBD",
"@ 	c #EEAFAF",
"# 	c #F1A2A2",
"$ 	c #F1A1A0",
"% 	c #F1A5A1",
"& 	c #F1A7A3",
"* 	c #F0A9A4",
"= 	c #F0ABA4",
"- 	c #EAC7C7",
"; 	c #EEB3B3",
"> 	c #F1A3A3",
", 	c #F1A2A0",
"' 	c #F0ACA5",
") 	c #F0AFA6",
"! 	c #EFB2A8",
"~ 	c #EFB5A9",
"{ 	c #EFB6A9",
"] 	c #EFB7AA",
"^ 	c #EBC1C1",
"/ 	c #EFAEAE",
"( 	c #F1A09F",
"_ 	c #F1A6A2",
": 	c #EFB2A7",
"< 	c #EEBCAC",
"[ 	c #EEC0AE",
"} 	c #EDC3AF",
"| 	c #EDC4B0",
"1 	c #EDC5B0",
"2 	c #EFACAC",
"3 	c #C6C9FF",
"4 	c #8C91FF",
"5 	c #2C2F82",
"6 	c #F0A9A3",
"7 	c #E8D0D0",
"8 	c #ECBEBE",
"9 	c #EEBDAD",
"0 	c #FFFFFF",
"a 	c #707070",
"b 	c #9B9B9B",
"c 	c #AAAAAA",
"d 	c #BCBCBC",
"e 	c #636363",
"f 	c #878787",
"g 	c #A0A0A0",
"h 	c #E6DBDB",
"i 	c #EFABAB",
"j 	c #EDC9B2",
"k 	c #949494",
"l 	c #777777",
"m 	c #E9CCCC",
"n 	c #F0A4A4",
"o 	c #ECCDB4",
"p 	c #5E5E5E",
"q 	c #F1A0A0",
"r 	c #ECD0B5",
"s 	c #F19F9F",
"t 	c #ECD2B6",
"u 	c #ADADAD",
"v 	c #000000",
"w 	c #ECBABA",
"x 	c #EDB9B9",
"y 	c #515151",
"z 	c #686868",
"A 	c #B5B5B5",
"B 	c #212121",
"C 	c #3D3D3D",
"D 	c #737373",
"E 	c #B7B7B7",
"F 	c #424242",
"G 	c #606060",
"H 	c #DEDEDE",
"I 	c #EFB9AB",
"J 	c #ECCEB5",
"K 	c #EBD6B8",
"L 	c #EBDEBB",
"M 	c #EAE6BE",
"N 	c #E9E8C3",
"O 	c #E8E8C7",
"P 	c #E8E7CB",
"Q 	c #E8E7CD",
"R 	c #E8E7CE",
"S 	c #EFB1A7",
"T 	c #EEBBAC",
"U 	c #ECD4B7",
"V 	c #EBDABA",
"W 	c #EAE0BC",
"X 	c #EAE5BE",
"Y 	c #E9E8C0",
"Z 	c #E9E8C2",
"` 	c #EEC2AF",
" .	c #EDCAB3",
"..	c #ECD5B7",
"+.	c #EBD9B9",
"@.	c #EBDCBA",
"            . + @ # $ % & * = = = * & % $ # @ + .               ",
"          - ; > , & ' ) ! ~ { ] { ~ ! ) ' & , > ; -             ",
"        ^ / ( _ ' : ] < [ } | 1 | } [ < ] : ' _ ( / ^           ",
"      ^ 2 3 3 3 3 3 3 3 3 3 3 3 3 3 3 3 3 3 3 3 3 3 4 ^         ",
"    - / $ 3 4 4 4 5 3 4 4 4 4 4 4 4 4 4 4 4 4 4 4 4 5 / -       ",
"  . ; ( 6 3 4 3 4 5 3 4 4 4 4 4 4 4 4 4 4 4 4 4 4 4 5 ( ; .     ",
"  + > _ ) 3 4 4 4 5 3 4 4 4 4 4 4 4 4 4 4 4 4 4 4 4 5 _ > +     ",
"7 @ , ' { 3 5 5 5 5 5 5 5 5 5 5 5 5 5 5 5 5 5 5 5 5 5 ' , @ 7   ",
"8 # & : 9 3 0 0 0 0 0 0 a a b c d d 0 0 0 0 0 0 0 0 5 : & # 8   ",
"; $ ' ] | 3 0 0 0 0 0 e f b b b g g d 0 0 0 0 0 0 0 5 ] ' $ ; h ",
"i % ) < j 3 0 0 0 0 e k l e e e e e g d 0 0 0 0 0 0 5 < ) % i m ",
"n & ! [ o 3 0 0 0 e k l e 0 0 0 0 0 p g d 0 0 0 0 0 5 [ ! & n ^ ",
"q * ~ } r 3 0 0 0 e l l 0 0 0 0 0 0 0 e g 0 0 0 0 0 5 } ~ * q + ",
"s = { | t 3 0 0 e l u 0 0 0 0 v v 0 0 0 g d 0 0 0 0 5 | { = s w ",
"( = ] 1 t 3 0 0 e b u 0 0 0 0 0 v 0 0 0 c d 0 0 0 0 5 1 ] = ( x ",
"s = { | t 3 0 0 e b u 0 0 0 0 0 0 v 0 0 c g 0 0 0 0 5 | { = s w ",
"q * ~ } r 3 0 0 e l u 0 0 0 0 0 0 0 0 0 d e v 0 0 0 5 } ~ * q + ",
"n & ! [ o 3 0 0 y e d 0 0 0 0 0 0 0 0 0 e e v 0 0 0 5 [ ! & n ^ ",
"i % ) < j 3 0 0 0 y b d 0 0 0 0 0 0 0 c v v z v v v v < ) % i m ",
"; $ ' ] | 3 0 0 0 y g k d 0 0 0 0 A c v B C C z D g E v v v ; h ",
"8 # & : 9 3 0 0 0 0 F l k k k k k k v v v B B C z D g E E D v   ",
"7 @ , ' { 4 5 5 5 5 5 5 F y y e e v 5 5 5 v v B B F G D g H 7 v ",
"  + > _ ) I | J K L M N O P Q R Q P O N M L K v v F F G D H   v ",
"  . ; ( 6 S T | o U V W X Y Z Z Z Y X W V U o | T v v v B D   v ",
"    - v v v v I `  .r ..+.@.L L L @.+...r  .` I S * $ / v v v   ",
"      ^ v $ 6 v { v | v v r v v t r v j | 9 v ) 6 v v v         ",
"        v v v _ ' v v < [ v | 1 v } v < v : v _ v / ^           ",
"        v - ; v , v ' ) ! v { ] v ~ v ) v & v > ; v v           ",
"        v   . v @ v $ % & v = = v * & v $ v @ + .     v         ",
"      v v v v   7 v ; i n q v v s q n v ; v 7   v v v     v     ",
"                    h m ^ + w x w + ^ m h                       ",
"                                                                "};
