/* XPM */
static char * window_valuesplot_active_xpm[] = {
"32 32 79 1",
" 	c None",
".	c #E7D4D4",
"+	c #ECBDBD",
"@	c #EEAFAF",
"#	c #F1A2A2",
"$	c #F1A1A0",
"%	c #F1A5A1",
"&	c #F1A7A3",
"*	c #F0A9A4",
"=	c #F0ABA4",
"-	c #EAC7C7",
";	c #EEB3B3",
">	c #F1A3A3",
",	c #F1A2A0",
"'	c #F0ACA5",
")	c #F0AFA6",
"!	c #EFB2A8",
"~	c #EFB5A9",
"{	c #EFB6A9",
"]	c #EFB7AA",
"^	c #EBC1C1",
"/	c #EFAEAE",
"(	c #F1A09F",
"_	c #F1A6A2",
":	c #EFB2A7",
"<	c #EEBCAC",
"[	c #EEC0AE",
"}	c #EDC3AF",
"|	c #EDC4B0",
"1	c #EDC5B0",
"2	c #EFACAC",
"3	c #C6C9FF",
"4	c #8C91FF",
"5	c #2C2F82",
"6	c #F0A9A3",
"7	c #E8D0D0",
"8	c #ECBEBE",
"9	c #EEBDAD",
"0	c #FFFFFF",
"a	c #E6DBDB",
"b	c #EFABAB",
"c	c #EDC9B2",
"d	c #E9CCCC",
"e	c #F0A4A4",
"f	c #ECCDB4",
"g	c #0759CF",
"h	c #F1A0A0",
"i	c #ECD0B5",
"j	c #BC8830",
"k	c #F19F9F",
"l	c #ECD2B6",
"m	c #ECBABA",
"n	c #EDB9B9",
"o	c #DA0000",
"p	c #43B419",
"q	c #EFB9AB",
"r	c #ECCEB5",
"s	c #EBD6B8",
"t	c #EBDEBB",
"u	c #EAE6BE",
"v	c #E9E8C3",
"w	c #E8E8C7",
"x	c #E8E7CB",
"y	c #E8E7CD",
"z	c #E8E7CE",
"A	c #EFB1A7",
"B	c #EEBBAC",
"C	c #ECD4B7",
"D	c #EBDABA",
"E	c #EAE0BC",
"F	c #EAE5BE",
"G	c #E9E8C0",
"H	c #E9E8C2",
"I	c #000000",
"J	c #EEC2AF",
"K	c #EDCAB3",
"L	c #ECD5B7",
"M	c #EBD9B9",
"N	c #EBDCBA",
"      .+@#$%&*===*&%$#@+.       ",
"     -;>,&')!~{]{~!)'&,>;-      ",
"    ^/(_':]<[}|1|}[<]:'_(/^     ",
"   ^23333333333333333333334^    ",
"  -/$3444534444444444444445/-   ",
" .;(63434534444444444444445(;.  ",
" +>_)3444534444444444444445_>+  ",
"7@,'{3555555555555555555555',@7 ",
"8#&:93000000000000000000005:&#8 ",
";$']|3000000000000000000005]'$;a",
"b%)<c3000000000000000000005<)%bd",
"e&![f300000000000000gg00005[!&e^",
"h*~}i3000000jj000000gg00005}~*h+",
"k={|l3000000jj000000gg00005|{=km",
"(=]1l3000000jj000000gg000051]=(n",
"k={|l300oo00jj000000gg00005|{=km",
"h*~}i300oo00jj00pp00gg00005}~*h+",
"e&![f300oo00jj00pp00gg00005[!&e^",
"b%)<c300oo00jj00pp00gg00005<)%bd",
";$']|300oo00jj00pp00gg00005]'$;a",
"8#&:9300oo00jj00pp00gg00005:&#8 ",
"7@,'{4555555555555555555555',@7 ",
" +>_)q|rstuvwxyzyxwvutsr|q)_>+  ",
" .;(6AB|fCDEFGHHHGFEDCf|BA6(;.  ",
"  -I(6AIJKiLMNIttNMDCKJq{*$/-   ",
"   I;$6I{IIIiiIiIiiI|9II6$2III  ",
"   I^;(I'{J<IJI1I}JI]I6_I/I     ",
"    I-I>,AIIIAI]I~AI6IIII- II   ",
"    I I+@I$%I6I=I*6I$I;+     I  ",
"     I  7;IIIhI(kIII;8III III   ",
"          ad^+mnm+^da           ",
"                                "};
