/* XPM */
static char * window_stats_large_xpm[] = {
"32 32 12 1",
" 	c None",
".	c #C6C9FF",
"+	c #8C91FF",
"@	c #2C2F82",
"#	c #FFFFFF",
"$	c #8C590C",
"%	c #610202",
"&	c #D7860A",
"*	c #0D5B1F",
"=	c #B30000",
"-	c #21BE45",
";	c #000000",
"                                ",
"                                ",
"                                ",
"     .....................+     ",
"     .+++@.+++++++++++++++@     ",
"     .+.+@.+++++++++++++++@     ",
"     .+++@.+++++++++++++++@     ",
"     .@@@@@@@@@@@@@@@@@@@@@     ",
"     .####################@     ",
"     .########$$$#########@     ",
"     .#########$##########@     ",
"     .##%%%####$##########@     ",
"     .###%####&&&###***###@     ",
"     .###%####&&&####*####@     ",
"     .##===####$####---###@     ",
"     .##===####$####---###@     ",
"     .##===####$####---###@     ",
"     .##===####$#####*####@     ",
"     .###%####$$$###***###@     ",
"     .##%%%###############@     ",
"     .####################@     ",
"     +@@@@@@@@@@@@@@@@@@@@@     ",
"                                ",
"                                ",
"     ;;;  ;        ;            ",
"    ;     ;;;  ;;  ;;;  ;;      ",
"     ;;;  ;      ; ;   ;        ",
"        ; ;    ;;; ;    ;;      ",
"        ; ;   ;  ; ;      ;     ",
"     ;;;   ;;  ;;;  ;; ;;;      ",
"                                ",
"                                "};
