/* XPM */
static char * 3d_xpm[] = {
"32 32 8 1",
" 	c None",
".	c #C6C9FF",
"+	c #8C91FF",
"@	c #2C2F82",
"#	c #212121",
"$	c #FFFFFF",
"%	c #949494",
"&	c #000000",
"                                ",
"                                ",
"                                ",
"     .....................+     ",
"     .+++@.+++++++++++++++@     ",
"     .+.+@.+++++++++++++++@     ",
"     .+++@.+++++++++++++++@     ",
"     .@@@@@@@@@@@@@@@@@@@@@     ",
"     .####################@     ",
"     .##########$#########@     ",
"     .#########$$%########@     ",
"     .########$$$%########@     ",
"     .#######$$$$%%#######@     ",
"     .######$$$$%%%%######@     ",
"     .#####$$$$$%%%%######@     ",
"     .####$$$$$$%%%%%#####@     ",
"     .####$$$$$%%%%%%%####@     ",
"     .#####$$$$%%%%%%#####@     ",
"     .######$$$%%%%#######@     ",
"     .#######$$%%#########@     ",
"     .####################@     ",
"     +@@@@@@@@@@@@@@@@@@@@@     ",
"                                ",
"                                ",
"           &&&  &&&&            ",
"          &   & &   &           ",
"             &  &   &           ",
"              & &   &           ",
"          &   & &   &           ",
"           &&&  &&&&            ",
"                                ",
"                                "};
