/* XPM */
static char * window_info_small_xpm[] = {
"22 19 5 1",
" 	c #DEDEDE",
".	c #ADADAD",
"+	c #949494",
"@	c #FFFFFF",
"#	c #000000",
"                     .",
" ...+ ...............+",
" . .+ ...............+",
" ...+ ...............+",
" +++++++++++++++++++++",
" @@@@@@@@@@@@@@@@@@@@+",
" @@@@@@@@@##@@@@@@@@@+",
" @@@@@@@@@##@@@@@@@@@+",
" @@@@@@@@@@@@@@@@@@@@+",
" @@@@@@@@@##@@@@@@@@@+",
" @@@@@@@@###@@@@@@@@@+",
" @@@@@@@####@@@@@@@@@+",
" @@@@@@@@@##@@@@@@@@@+",
" @@@@@@@@@##@@@@@@@@@+",
" @@@@@@@@@###@@@@@@@@+",
" @@@@@@@@@@####@@@@@@+",
" @@@@@@@@@@@##@@@@@@@+",
" @@@@@@@@@@@@@@@@@@@@+",
".+++++++++++++++++++++"};
