/* XPM */
static char * sagittal_act_xpm[] = {
"32 32 80 1",
" 	c None",
".	c #E7D4D4",
"+	c #ECBDBD",
"@	c #EEAFAF",
"#	c #F1A2A2",
"$	c #F1A1A0",
"%	c #F1A5A1",
"&	c #F1A7A3",
"*	c #F0A9A4",
"=	c #F0ABA4",
"-	c #EAC7C7",
";	c #EEB3B3",
">	c #F1A3A3",
",	c #F1A2A0",
"'	c #F0ACA5",
")	c #F0AFA6",
"!	c #EFB2A8",
"~	c #EFB5A9",
"{	c #EFB6A9",
"]	c #EFB7AA",
"^	c #EBC1C1",
"/	c #EFAEAE",
"(	c #F1A09F",
"_	c #F1A6A2",
":	c #EFB2A7",
"<	c #EEBCAC",
"[	c #EEC0AE",
"}	c #EDC3AF",
"|	c #EDC4B0",
"1	c #EDC5B0",
"2	c #EFACAC",
"3	c #C6C9FF",
"4	c #8C91FF",
"5	c #2C2F82",
"6	c #F0A9A3",
"7	c #E8D0D0",
"8	c #ECBEBE",
"9	c #EEBDAD",
"0	c #000000",
"a	c #BDBDBD",
"b	c #949494",
"c	c #E6DBDB",
"d	c #EFABAB",
"e	c #EDC9B2",
"f	c #424242",
"g	c #636363",
"h	c #E9CCCC",
"i	c #F0A4A4",
"j	c #ECCDB4",
"k	c #ADADAD",
"l	c #F1A0A0",
"m	c #ECD0B5",
"n	c #DEDEDE",
"o	c #F19F9F",
"p	c #ECD2B6",
"q	c #ECBABA",
"r	c #EDB9B9",
"s	c #EFB9AB",
"t	c #ECCEB5",
"u	c #EBD6B8",
"v	c #EBDEBB",
"w	c #EAE6BE",
"x	c #E9E8C3",
"y	c #E8E8C7",
"z	c #E8E7CB",
"A	c #E8E7CD",
"B	c #E8E7CE",
"C	c #EFB1A7",
"D	c #EEBBAC",
"E	c #ECD4B7",
"F	c #EBDABA",
"G	c #EAE0BC",
"H	c #EAE5BE",
"I	c #E9E8C0",
"J	c #E9E8C2",
"K	c #EEC2AF",
"L	c #EDCAB3",
"M	c #ECD5B7",
"N	c #EBD9B9",
"O	c #EBDCBA",
"      .+@#$%&*===*&%$#@+.       ",
"     -;>,&')!~{]{~!)'&,>;-      ",
"    ^/(_':]<[}|1|}[<]:'_(/^     ",
"   ^23333333333333333333334^    ",
"  -/$3444534444444444444445/-   ",
" .;(63434534444444444444445(;.  ",
" +>_)3444534444444444444445_>+  ",
"7@,'{3555555555555555555555',@7 ",
"8#&:93000000000000000000005:&#8 ",
";$']|3000000abaaaabab000005]'$;c",
"d%)<e300000bffgggfggba00005<)%dh",
"i&![j30000aagbakkbkbgfb0005[!&i^",
"l*~}m3000agbannnanabbgg0005}~*l+",
"o={|p3000bgkknaananabgb0005|{=oq",
"(=]1p3000kgfknnbknnbbga00051]=(r",
"o={|p30000afbankbngggfa0005|{=oq",
"l*~}m30000bfgbbakgkkbfb0005}~*l+",
"i&![j300abffgfgbakkgga00005[!&i^",
"d%)<e30abagfffgbnbgaa000005<)%dh",
";$']|300000agfgbnbaaaa00005]'$;c",
"8#&:93000000000000000000005:&#8 ",
"7@,'{4555555555555555555555',@7 ",
" +>_)s|tuvwxyzABAzyxwvut|s)_>+  ",
" .;(6CD|jEFGHIJJ0IHGFEj|DC6(;.  ",
"  000*CsKLmMNOvvvON0mL0sC*$/- 0 ",
" 0 ^2$6009|e000p0m000000600^  0 ",
" 0000/(_'0]0[}010}[0]:0_(/^0  0 ",
"    0-;000'0!~0]0~!0'&0>;000  0 ",
"    0 0+@0$%000=0*&0$#0+0  0  0 ",
" 000   0080dil0(0li0;80  00 0 0 ",
"          c000qrq+^hc           ",
"                                "};
