/* XPM */
static char * axial_act_xpm[] = {
"32 32 81 1",
" 	c None",
".	c #E7D4D4",
"+	c #ECBDBD",
"@	c #EEAFAF",
"#	c #F1A2A2",
"$	c #F1A1A0",
"%	c #F1A5A1",
"&	c #F1A7A3",
"*	c #F0A9A4",
"=	c #F0ABA4",
"-	c #EAC7C7",
";	c #EEB3B3",
">	c #F1A3A3",
",	c #F1A2A0",
"'	c #F0ACA5",
")	c #F0AFA6",
"!	c #EFB2A8",
"~	c #EFB5A9",
"{	c #EFB6A9",
"]	c #EFB7AA",
"^	c #EBC1C1",
"/	c #EFAEAE",
"(	c #F1A09F",
"_	c #F1A6A2",
":	c #EFB2A7",
"<	c #EEBCAC",
"[	c #EEC0AE",
"}	c #EDC3AF",
"|	c #EDC4B0",
"1	c #EDC5B0",
"2	c #EFACAC",
"3	c #C6C9FF",
"4	c #8C91FF",
"5	c #2C2F82",
"6	c #F0A9A3",
"7	c #E8D0D0",
"8	c #ECBEBE",
"9	c #EEBDAD",
"0	c #000000",
"a	c #949494",
"b	c #BDBDBD",
"c	c #ADADAD",
"d	c #636363",
"e	c #424242",
"f	c #E6DBDB",
"g	c #EFABAB",
"h	c #EDC9B2",
"i	c #E9CCCC",
"j	c #F0A4A4",
"k	c #ECCDB4",
"l	c #DEDEDE",
"m	c #F1A0A0",
"n	c #ECD0B5",
"o	c #F19F9F",
"p	c #ECD2B6",
"q	c #ECBABA",
"r	c #EDB9B9",
"s	c #737373",
"t	c #EFB9AB",
"u	c #ECCEB5",
"v	c #EBD6B8",
"w	c #EBDEBB",
"x	c #EAE6BE",
"y	c #E9E8C3",
"z	c #E8E8C7",
"A	c #E8E7CB",
"B	c #E8E7CD",
"C	c #E8E7CE",
"D	c #EFB1A7",
"E	c #EEBBAC",
"F	c #ECD4B7",
"G	c #EBDABA",
"H	c #EAE0BC",
"I	c #EAE5BE",
"J	c #E9E8C0",
"K	c #E9E8C2",
"L	c #EDCAB3",
"M	c #ECD5B7",
"N	c #EBD9B9",
"O	c #EBDCBA",
"P	c #EEC2AF",
"      .+@#$%&*===*&%$#@+.       ",
"     -;>,&')!~{]{~!)'&,>;-      ",
"    ^/(_':]<[}|1|}[<]:'_(/^     ",
"   ^23333333333333333333334^    ",
"  -/$3444534444444444444445/-   ",
" .;(63434534444444444444445(;.  ",
" +>_)3444534444444444444445_>+  ",
"7@,'{3555555555555555555555',@7 ",
"8#&:93000000abcccccd0000005:&#8 ",
";$']|300000bddde0dddc000005]'$;f",
"g%)<h30000addccecccdb000005<)%gi",
"j&![k30000beclbdallcdb00005[!&j^",
"m*~}n3000cdabeedbeacdc00005}~*m+",
"o={|p3000beblbeaeblldb00005|{=oq",
"(=]1p3000bdableeeabcdc000051]=(r",
"o={|p3000adcbeebeeacdb00005|{=oq",
"m*~}n30000bdlblebblbdb00005}~*m+",
"j&![k30000b0baaealacda00005[!&j^",
"g%)<h30000cdclcdbccddd00005<)%gi",
";$']|300000bddaeed0ba000005]'$;f",
"8#&:9300000saddccbads000005:&#8 ",
"7@,'{4555555555555555555555',@7 ",
" +>_)t|uvwxyzABCBAzyxwvu|t)_>+  ",
" .;(6DE|kFGHIJKKK0IHGFk|ED6(;.  ",
"  -/$*D00LnMNOwwwONMnLPtD0$/-   ",
"   ^2$0){0|0knp0p0kh00{)602^    ",
"    ^/0_'0]<0}01|0[<]:0_(0^     ",
"     -0000')!0{]{0!)000>;0      ",
"      0+@0$%0*0==0&0$#0+.0      ",
"      0 70;0jmo0o0jg0070 0      ",
"          fi^+qrq+^if           ",
"                                "};
