/* XPM */
static char * window_Profile_large_xpm[] = {
"32 32 8 1",
" 	c None",
".	c #C6C9FF",
"+	c #8C91FF",
"@	c #2C2F82",
"#	c #FFFFFF",
"$	c #FF0000",
"%	c #005DFF",
"&	c #000000",
"                                ",
"                                ",
"                                ",
"     .....................+     ",
"     .+++@.+++++++++++++++@     ",
"     .+.+@.+++++++++++++++@     ",
"     .+++@.+++++++++++++++@     ",
"     .@@@@@@@@@@@@@@@@@@@@@     ",
"     .####################@     ",
"     .####################@     ",
"     .#######$$$$$########@     ",
"     .#####$$#####$#######@     ",
"     .####$####%%##$$#####@     ",
"     .###$####%##%###$####@     ",
"     .##$####%####%###$###@     ",
"     .#$#####%####%####$##@     ",
"     .$#####%######%####$$@     ",
"     .#####%########%#####@     ",
"     .%%%%%##########%%%%%@     ",
"     .####################@     ",
"     .####################@     ",
"     +@@@@@@@@@@@@@@@@@@@@@     ",
"                                ",
"                                ",
"   &&&&            && & &       ",
"    &  & & && &&  &     &  &&   ",
"    &&&  &&  &  & &   & & &  &  ",
"    &    &   &  & &&& & & &&&&  ",
"    &    &   &  & &   & & &     ",
"    &    &    &&  &   & &  &&&  ",
"                                ",
"                                "};
