/* XPM */
static char * window_histogram_large_xpm[] = {
"32 32 84 1",
" 	c None",
".	c #E7D4D4",
"+	c #ECBDBD",
"@	c #EEAFAF",
"#	c #F1A2A2",
"$	c #F1A1A0",
"%	c #F1A5A1",
"&	c #F1A7A3",
"*	c #F0A9A4",
"=	c #F0ABA4",
"-	c #EAC7C7",
";	c #EEB3B3",
">	c #F1A3A3",
",	c #F1A2A0",
"'	c #F0ACA5",
")	c #F0AFA6",
"!	c #EFB2A8",
"~	c #EFB5A9",
"{	c #EFB6A9",
"]	c #EFB7AA",
"^	c #EBC1C1",
"/	c #EFAEAE",
"(	c #F1A09F",
"_	c #F1A6A2",
":	c #EFB2A7",
"<	c #EEBCAC",
"[	c #EEC0AE",
"}	c #EDC3AF",
"|	c #EDC4B0",
"1	c #EDC5B0",
"2	c #EFACAC",
"3	c #C6C9FF",
"4	c #8C91FF",
"5	c #2C2F82",
"6	c #F0A9A3",
"7	c #E8D0D0",
"8	c #FFFFFF",
"9	c #ECBEBE",
"0	c #EEBDAD",
"a	c #090D58",
"b	c #373CA4",
"c	c #5A5FC9",
"d	c #E6DBDB",
"e	c #EFABAB",
"f	c #E9CCCC",
"g	c #EDC9B2",
"h	c #F0A4A4",
"i	c #ECCDB4",
"j	c #F1A0A0",
"k	c #ECD0B5",
"l	c #F19F9F",
"m	c #ECBABA",
"n	c #ECD2B6",
"o	c #EDB9B9",
"p	c #EFB9AB",
"q	c #ECCEB5",
"r	c #EBD6B8",
"s	c #EBDEBB",
"t	c #EAE6BE",
"u	c #E9E8C3",
"v	c #E8E8C7",
"w	c #E8E7CB",
"x	c #E8E7CD",
"y	c #E8E7CE",
"z	c #EFB1A7",
"A	c #EEBBAC",
"B	c #ECD4B7",
"C	c #EBDABA",
"D	c #EAE0BC",
"E	c #EAE5BE",
"F	c #E9E8C0",
"G	c #E9E8C2",
"H	c #000000",
"I	c #EDCAB3",
"J	c #EBD9B9",
"K	c #E1C7AD",
"L	c #E9BABA",
"M	c #050403",
"N	c #E8C5C5",
"O	c #EE9F9E",
"P	c #ECA19D",
"Q	c #EB9C9C",
"R	c #EABCBC",
"S	c #D5CBCB",
"      .+@#$%&*===*&%$#@+.       ",
"     -;>,&')!~{]{~!)'&,>;-      ",
"    ^/(_':]<[}|1|}[<]:'_(/^     ",
"    23333333333333333333334^    ",
"   ^23444534444444444444445/-   ",
"  -/$3434534444444444444445(;.  ",
" .;(63444534444444444444445_>+  ",
" +>_)3555555555555555555555',@7 ",
"7@,'{3888888888888888888885:&#9 ",
"9#&:0384888888888abc8888485]'$;d",
";$']|384888888888abc8888485<)%ef",
"e%)<g384888abc888abc8888485[!&h^",
"h&![i384888abc888abc8888485}~*j+",
"j*~}k384888abc888abc8888485|{=lm",
"l={|n384888abc888abcabc84851]=(o",
"(=]1n384abcabc888abcabc8485|{=lm",
"l={|n384abcabc888abcabc8485}~*j+",
"j*~}k384abcabcabcabcabc8485[!&h^",
"h&![i384abcabcabcabcabc8485<)%ef",
"e%)<g3844444444444444444485]'$;d",
";$']|3888888888888888888885:&#9 ",
"9#&:04555555555555555555555',@7 ",
"7+>_)p|qrstuvwxyxwvutsrq|p)_>+  ",
" .;(6zA|iBCDEFGGGFEDCBi|Az6(;.  ",
" .;(6_pHIkHJHsssHHHnIHp_*$$/-   ",
"  ^_$6_H<|HnknnHKngH0H)_$2+     ",
"   +___H<<H[H|1H}<<]:HHH/L      ",
"    -;>HHHH!H{]<HMH_&H>_N       ",
"     .+H_OH&H==_*_PH#H++        ",
"       H+;HhH__HQ_eHRH          ",
"       H dH^+HomHHHS  HHH       ",
"                                "};
