/* XPM */
static char * window_histogram_large_xpm[] = {
"32 32 9 1",
" 	c None",
".	c #C6C9FF",
"+	c #8C91FF",
"@	c #2C2F82",
"#	c #FFFFFF",
"$	c #090D58",
"%	c #373CA4",
"&	c #5A5FC9",
"*	c #000000",
"                                ",
"                                ",
"                                ",
"     .....................+     ",
"     .+++@.+++++++++++++++@     ",
"     .+.+@.+++++++++++++++@     ",
"     .+++@.+++++++++++++++@     ",
"     .@@@@@@@@@@@@@@@@@@@@@     ",
"     .####################@     ",
"     .#+#########$%&####+#@     ",
"     .#+#########$%&####+#@     ",
"     .#+###$%&###$%&####+#@     ",
"     .#+###$%&###$%&####+#@     ",
"     .#+###$%&###$%&####+#@     ",
"     .#+###$%&###$%&$%&#+#@     ",
"     .#+$%&$%&###$%&$%&#+#@     ",
"     .#+$%&$%&###$%&$%&#+#@     ",
"     .#+$%&$%&$%&$%&$%&#+#@     ",
"     .#+$%&$%&$%&$%&$%&#+#@     ",
"     .#++++++++++++++++++#@     ",
"     .####################@     ",
"     +@@@@@@@@@@@@@@@@@@@@@     ",
"                                ",
"       *  *          *          ",
"       *  * *   ***  *          ",
"       *  *    *   * *          ",
"       *  * *  *     ***        ",
"       **** *   ***  *          ",
"       *  * *      * *          ",
"       *  * *  *   * *          ",
"       *  *  *  ***   ***       ",
"                                "};
