/* XPM */
static char * window_statsplot_active_xpm[] = {
"32 32 81 1",
" 	c None",
".	c #E7D4D4",
"+	c #ECBDBD",
"@	c #EEAFAF",
"#	c #F1A2A2",
"$	c #F1A1A0",
"%	c #F1A5A1",
"&	c #F1A7A3",
"*	c #F0A9A4",
"=	c #F0ABA4",
"-	c #EAC7C7",
";	c #EEB3B3",
">	c #F1A3A3",
",	c #F1A2A0",
"'	c #F0ACA5",
")	c #F0AFA6",
"!	c #EFB2A8",
"~	c #EFB5A9",
"{	c #EFB6A9",
"]	c #EFB7AA",
"^	c #EBC1C1",
"/	c #EFAEAE",
"(	c #F1A09F",
"_	c #F1A6A2",
":	c #EFB2A7",
"<	c #EEBCAC",
"[	c #EEC0AE",
"}	c #EDC3AF",
"|	c #EDC4B0",
"1	c #EDC5B0",
"2	c #EFACAC",
"3	c #C6C9FF",
"4	c #8C91FF",
"5	c #2C2F82",
"6	c #F0A9A3",
"7	c #E8D0D0",
"8	c #ECBEBE",
"9	c #EEBDAD",
"0	c #FFFFFF",
"a	c #8C590C",
"b	c #E6DBDB",
"c	c #EFABAB",
"d	c #EDC9B2",
"e	c #E9CCCC",
"f	c #F0A4A4",
"g	c #ECCDB4",
"h	c #610202",
"i	c #F1A0A0",
"j	c #ECD0B5",
"k	c #D7860A",
"l	c #0D5B1F",
"m	c #F19F9F",
"n	c #ECD2B6",
"o	c #ECBABA",
"p	c #B30000",
"q	c #21BE45",
"r	c #EDB9B9",
"s	c #EFB9AB",
"t	c #ECCEB5",
"u	c #EBD6B8",
"v	c #EBDEBB",
"w	c #EAE6BE",
"x	c #E9E8C3",
"y	c #E8E8C7",
"z	c #E8E7CB",
"A	c #E8E7CD",
"B	c #E8E7CE",
"C	c #EFB1A7",
"D	c #EEBBAC",
"E	c #ECD4B7",
"F	c #EBDABA",
"G	c #EAE0BC",
"H	c #EAE5BE",
"I	c #E9E8C0",
"J	c #E9E8C2",
"K	c #000000",
"L	c #EEC2AF",
"M	c #EDCAB3",
"N	c #ECD5B7",
"O	c #EBD9B9",
"P	c #EBDCBA",
"      .+@#$%&*===*&%$#@+.       ",
"     -;>,&')!~{]{~!)'&,>;-      ",
"    ^/(_':]<[}|1|}[<]:'_(/^     ",
"   ^23333333333333333333334^    ",
"  -/$3444534444444444444445/-   ",
" .;(63434534444444444444445(;.  ",
" +>_)3444534444444444444445_>+  ",
"7@,'{3555555555555555555555',@7 ",
"8#&:93000000000000000000005:&#8 ",
";$']|300000000aaa0000000005]'$;b",
"c%)<d3000000000a00000000005<)%ce",
"f&![g300hhh0000a00000000005[!&f^",
"i*~}j3000h0000kkk000lll0005}~*i+",
"m={|n3000h0000kkk0000l00005|{=mo",
"(=]1n300ppp0000a0000qqq00051]=(r",
"m={|n300ppp0000a0000qqq0005|{=mo",
"i*~}j300ppp0000a0000qqq0005}~*i+",
"f&![g300ppp0000a00000l00005[!&f^",
"c%)<d3000h0000aaa000lll0005<)%ce",
";$']|300hhh0000000000000005]'$;b",
"8#&:93000000000000000000005:&#8 ",
"7@,'{4555555555555555555555',@7 ",
" +>_)s|tuvwxyzABAzyxwvut|s)_>+  ",
" .;(6CD|gEFGHIJJJIHGFEg|DC6(;.  ",
"  -;(KKKLMKNOPvvvPOKEMLs{*$/-   ",
"   ^K$6C{LKKKjjKKjjKKK{)KK2^    ",
"    ^KKK'{K<[L|1LKLK]:6K(/^     ",
"     -;>KCK)!C{KKKCK6&(>KK      ",
"      .+K(K%&6K=6K6K$#;+  K     ",
"     KKK7;;KKi(KKK(cKK KKK      ",
"          be^+oro+^eb           ",
"                                "};
