/* XPM */
static char * window_activemask_xpm[] = {
"32 32 70 1",
" 	c None",
".	c #E7D4D4",
"+	c #ECBDBD",
"@	c #EEAFAF",
"#	c #F1A2A2",
"$	c #F1A1A0",
"%	c #F1A5A1",
"&	c #F1A7A3",
"*	c #F0A9A4",
"=	c #F0ABA4",
"-	c #EAC7C7",
";	c #EEB3B3",
">	c #F1A3A3",
",	c #F1A2A0",
"'	c #F0ACA5",
")	c #F0AFA6",
"!	c #EFB2A8",
"~	c #EFB5A9",
"{	c #EFB6A9",
"]	c #EFB7AA",
"^	c #EBC1C1",
"/	c #EFAEAE",
"(	c #F1A09F",
"_	c #F1A6A2",
":	c #EFB2A7",
"<	c #EEBCAC",
"[	c #EEC0AE",
"}	c #EDC3AF",
"|	c #EDC4B0",
"1	c #EDC5B0",
"2	c #EFACAC",
"3	c #F0A9A3",
"4	c #E8D0D0",
"5	c #ECBEBE",
"6	c #EEBDAD",
"7	c #E6DBDB",
"8	c #EFABAB",
"9	c #EDC9B2",
"0	c #E9CCCC",
"a	c #F0A4A4",
"b	c #ECCDB4",
"c	c #F1A0A0",
"d	c #ECD0B5",
"e	c #F19F9F",
"f	c #ECD2B6",
"g	c #ECBABA",
"h	c #EDB9B9",
"i	c #EFB9AB",
"j	c #ECCEB5",
"k	c #EBD6B8",
"l	c #EBDEBB",
"m	c #EAE6BE",
"n	c #E9E8C3",
"o	c #E8E8C7",
"p	c #E8E7CB",
"q	c #E8E7CD",
"r	c #E8E7CE",
"s	c #EFB1A7",
"t	c #EEBBAC",
"u	c #ECD4B7",
"v	c #EBDABA",
"w	c #EAE0BC",
"x	c #EAE5BE",
"y	c #E9E8C0",
"z	c #E9E8C2",
"A	c #EEC2AF",
"B	c #EDCAB3",
"C	c #ECD5B7",
"D	c #EBD9B9",
"E	c #EBDCBA",
"      .+@#$%&*===*&%$#@+.       ",
"     -;>,&')!~{]{~!)'&,>;-      ",
"    ^/(_':]<[}|1|}[<]:'_(/^     ",
"   ^2                      ^    ",
"  -/$                      /-   ",
" .;(3                      (;.  ",
" +>_)                      _>+  ",
"4@,'{                      ',@4 ",
"5#&:6                      :&#5 ",
";$']|                      ]'$;7",
"8%)<9                      <)%80",
"a&![b                      [!&a^",
"c*~}d                      }~*c+",
"e={|f                      |{=eg",
"(=]1f                      1]=(h",
"e={|f                      |{=eg",
"c*~}d                      }~*c+",
"a&![b                      [!&a^",
"8%)<9                      <)%80",
";$']|                      ]'$;7",
"5#&:6                      :&#5 ",
"4@,'{                      ',@4 ",
" +>_)i|jklmnopqrqponmlkj|i)_>+  ",
" .;(3st|buvwxyzzzyxwvub|ts3(;.  ",
"  -;(3siABdCDElllEDvuBAi{*$/-   ",
"   ^;$3s{A|dddddfdd9|6{)3$2^    ",
"    ^;(_'{A<[A|1A}A<]:3_(/^     ",
"     -;>,s')!s{]s~s{3&(>;-      ",
"      .+@($%&3==3*3%$#;+        ",
"        4;;8ac((ec(8;5          ",
"          70^+ghg+^07           ",
"                                "};
