/* XPM */
static char * sagittal_xpm[] = {
"32 32 11 1",
" 	c None",
".	c #C6C9FF",
"+	c #8C91FF",
"@	c #2C2F82",
"#	c #000000",
"$	c #BDBDBD",
"%	c #949494",
"&	c #424242",
"*	c #636363",
"=	c #ADADAD",
"-	c #DEDEDE",
"                                ",
"                                ",
"                                ",
"     .....................+     ",
"     .+++@.+++++++++++++++@     ",
"     .+.+@.+++++++++++++++@     ",
"     .+++@.+++++++++++++++@     ",
"     .@@@@@@@@@@@@@@@@@@@@@     ",
"     .####################@     ",
"     .######$%$$$$%$%#####@     ",
"     .#####%&&***&**%$####@     ",
"     .####$$*%$==%=%*&%###@     ",
"     .###$*%$---$-$%%**###@     ",
"     .###%*==-$$-$-$%*%###@     ",
"     .###=*&=--%=--%%*$###@     ",
"     .####$&%$-=%-***&$###@     ",
"     .####%&*%%$=*==%&%###@     ",
"     .##$%&&*&*%$==**$####@     ",
"     .#$%$*&&&*%-%*$$#####@     ",
"     .#####$*&*%-%$$$$####@     ",
"     .####################@     ",
"     +@@@@@@@@@@@@@@@@@@@@@     ",
"                                ",
"                #               ",
"  ###              #  #       # ",
" #     ##   ### # ###### ##   # ",
" ####    # #  # #  #  #    #  # ",
"    #  ### #  # #  #  #  ###  # ",
"    # #  #  ### #  #  # #  #  # ",
" ###   ## #   # #  #  #  ## # # ",
"           ###                  ",
"                                "};
