/* XPM */
static char * window_info_large_xpm[] = {
"32 32 6 1",
" 	c None",
".	c #C6C9FF",
"+	c #8C91FF",
"@	c #2C2F82",
"#	c #FFFFFF",
"$	c #000000",
"                                ",
"                                ",
"                                ",
"     .....................+     ",
"     .+++@.+++++++++++++++@     ",
"     .+.+@.+++++++++++++++@     ",
"     .+++@.+++++++++++++++@     ",
"     .@@@@@@@@@@@@@@@@@@@@@     ",
"     .####################@     ",
"     .#########$$#########@     ",
"     .#########$$#########@     ",
"     .####################@     ",
"     .#########$$#########@     ",
"     .########$$$#########@     ",
"     .#######$$$$#########@     ",
"     .#########$$#########@     ",
"     .#########$$#########@     ",
"     .#########$$$########@     ",
"     .##########$$$$######@     ",
"     .###########$$#######@     ",
"     .####################@     ",
"     +@@@@@@@@@@@@@@@@@@@@@     ",
"                                ",
"                                ",
"        $$$       $$            ",
"         $  $ $  $   $$         ",
"         $  $$ $ $  $  $        ",
"         $  $  $ $$ $  $        ",
"         $  $  $ $  $  $        ",
"        $$$ $  $ $   $$         ",
"                                ",
"                                "};
