/* XPM */
static char * window_stats_small_xpm[] = {
"22 19 10 1",
" 	c #DEDEDE",
".	c #ADADAD",
"+	c #949494",
"@	c #FFFFFF",
"#	c #8C590C",
"$	c #610202",
"%	c #D7860A",
"&	c #0D5B1F",
"*	c #B30000",
"=	c #21BE45",
"                     .",
" ...+ ...............+",
" . .+ ...............+",
" ...+ ...............+",
" +++++++++++++++++++++",
" @@@@@@@@@@@@@@@@@@@@+",
" @@@@@@@@###@@@@@@@@@+",
" @@@@@@@@@#@@@@@@@@@@+",
" @@$$$@@@@#@@@@@@@@@@+",
" @@@$@@@@%%%@@@&&&@@@+",
" @@@$@@@@%%%@@@@&@@@@+",
" @@***@@@@#@@@@===@@@+",
" @@***@@@@#@@@@===@@@+",
" @@***@@@@#@@@@===@@@+",
" @@***@@@@#@@@@@&@@@@+",
" @@@$@@@@###@@@&&&@@@+",
" @@$$$@@@@@@@@@@@@@@@+",
" @@@@@@@@@@@@@@@@@@@@+",
".+++++++++++++++++++++"};
