/* XPM */
static char * window_Profile_small_xpm[] = {
"22 19 8 1",
" 	c None",
".	c #DEDEDE",
"+	c #B0B0C2",
"@	c #ADADAD",
"#	c #949494",
"$	c #FFFFFF",
"%	c #FF0000",
"&	c #005DFF",
".....................+",
".@@@#.@@@@@@@@@@@@@@@#",
".@.@#.@@@@@@@@@@@@@@@#",
".@@@#.@@@@@@@@@@@@@@@#",
".#####################",
".$$$$$$$$$$$$$$$$$$$$#",
".$$$$$$$$$$$$$$$$$$$$#",
".$$$$$$$%%%%%$$$$$$$$#",
".$$$$$%%$$$$$%$$$$$$$#",
".$$$$%$$$$&&$$%%$$$$$#",
".$$$%$$$$&$$&$$$%$$$$#",
".$$%$$$$&$$$$&$$$%$$$#",
".$%$$$$$&$$$$&$$$$%$$#",
".%$$$$$&$$$$$$&$$$$%%#",
".$$$$$&$$$$$$$$&$$$$$#",
".&&&&&$$$$$$$$$$&&&&&#",
".$$$$$$$$$$$$$$$$$$$$#",
".$$$$$$$$$$$$$$$$$$$$#",
"+#####################"};
