/* XPM */
static char * window_info_active_xpm[] = {
"32 32 67 1",
" 	c None",
".	c #EAC7C7",
"+	c #EEB3B3",
"@	c #F1A3A3",
"#	c #F1A2A0",
"$	c #F1A7A3",
"%	c #F0ACA5",
"&	c #F0AFA6",
"*	c #EFB2A8",
"=	c #EFB5A9",
"-	c #EFB6A9",
";	c #EFB7AA",
">	c #EBC1C1",
",	c #EFAEAE",
"'	c #F1A09F",
")	c #F1A6A2",
"!	c #EFB2A7",
"~	c #EEBCAC",
"{	c #EEC0AE",
"]	c #EDC3AF",
"^	c #EDC4B0",
"/	c #EDC5B0",
"(	c #EFACAC",
"_	c #F1A1A0",
":	c #C6C9FF",
"<	c #8C91FF",
"[	c #E7D4D4",
"}	c #F0A9A3",
"|	c #2C2F82",
"1	c #ECBDBD",
"2	c #E8D0D0",
"3	c #EEAFAF",
"4	c #ECBEBE",
"5	c #F1A2A2",
"6	c #EEBDAD",
"7	c #FFFFFF",
"8	c #E6DBDB",
"9	c #EFABAB",
"0	c #F1A5A1",
"a	c #EDC9B2",
"b	c #000000",
"c	c #E9CCCC",
"d	c #F0A4A4",
"e	c #ECCDB4",
"f	c #F1A0A0",
"g	c #F0A9A4",
"h	c #ECD0B5",
"i	c #F19F9F",
"j	c #F0ABA4",
"k	c #ECD2B6",
"l	c #ECBABA",
"m	c #EDB9B9",
"n	c #EFB1A7",
"o	c #EEBBAC",
"p	c #ECD4B7",
"q	c #EBDABA",
"r	c #EAE0BC",
"s	c #EAE5BE",
"t	c #E9E8C0",
"u	c #E9E8C2",
"v	c #EFB9AB",
"w	c #EEC2AF",
"x	c #EDCAB3",
"y	c #ECD5B7",
"z	c #EBD9B9",
"A	c #EBDCBA",
"B	c #EBDEBB",
"     .+@#$%&*=-;-=*&%$#@+.      ",
"    >,')%!;~{]^/^]{~;!%)',>     ",
"   >(                      >    ",
"  .,_:::::::::::::::::::::<,.   ",
" [+'}:<<<|:<<<<<<<<<<<<<<<|'+[  ",
" 1@)&:<:<|:<<<<<<<<<<<<<<<|)@1  ",
"23#%-:<<<|:<<<<<<<<<<<<<<<|%#32 ",
"45$!6:|||||||||||||||||||||!$54 ",
"+_%;^:77777777777777777777|;%_+8",
"90&~a:777777777bb777777777|~&09c",
"d$*{e:777777777bb777777777|{*$d>",
"fg=]h:77777777777777777777|]=gf1",
"ij-^k:777777777bb777777777|^-jil",
"'j;/k:77777777bbb777777777|/;j'm",
"ij-^k:7777777bbbb777777777|^-jil",
"fg=]h:777777777bb777777777|]=gf1",
"d$*{e:777777777bb777777777|{*$d>",
"90&~a:777777777bbb77777777|~&09c",
"+_%;^:7777777777bbbb777777|;%_+8",
"45$!6:77777777777bb7777777|!$54 ",
"23#%-:77777777777777777777|%#32 ",
" 1@)&<|||||||||||||||||||||)@1  ",
" [+'}no^epqrstuuutsrqpe^on}'+[  ",
"  .+'}nvwxhyzABBBAzqpxwv-g_,.   ",
"   >+_}nbbbhhhhhkhbb^6-&}_(>    ",
"    >+')%bw~bwb/wbw~;bb)',>     ",
"     .+@#b%&bb-bnbn-b$'b+.      ",
"      [13b_0b}jb}bb0b5+b        ",
"        2b+9bf'bib'9b4 b        ",
"        bbbcb1lblb>c8bb         ",
"                                ",
"                                "};
