/* XPM */
static char * window_values_small_xpm[] = {
"22 19 8 1",
" 	c #DEDEDE",
".	c #ADADAD",
"+	c #949494",
"@	c #FFFFFF",
"#	c #0759CF",
"$	c #BC8830",
"%	c #DA0000",
"&	c #43B419",
"                     .",
" ...+ ...............+",
" . .+ ...............+",
" ...+ ...............+",
" +++++++++++++++++++++",
" @@@@@@@@@@@@@@@@@@@@+",
" @@@@@@@@@@@@@@@@@@@@+",
" @@@@@@@@@@@@@@@@@@@@+",
" @@@@@@@@@@@@@@##@@@@+",
" @@@@@@$$@@@@@@##@@@@+",
" @@@@@@$$@@@@@@##@@@@+",
" @@@@@@$$@@@@@@##@@@@+",
" @@%%@@$$@@@@@@##@@@@+",
" @@%%@@$$@@&&@@##@@@@+",
" @@%%@@$$@@&&@@##@@@@+",
" @@%%@@$$@@&&@@##@@@@+",
" @@%%@@$$@@&&@@##@@@@+",
" @@%%@@$$@@&&@@##@@@@+",
".+++++++++++++++++++++"};
