/* XPM */
static char * browser_xpm[] = {
"32 32 13 1",
" 	c None",
".	c #C6C9FF",
"+	c #8C91FF",
"@	c #2C2F82",
"#	c #FFFFFF",
"$	c #636363",
"%	c #ADADAD",
"&	c #DEDEDE",
"*	c #949494",
"=	c #000000",
"-	c #424242",
";	c #737373",
">	c #212121",
"                                ",
"                                ",
"                                ",
"     .....................+     ",
"     .+++@.+++++++++++++++@     ",
"     .+.+@.+++++++++++++++@     ",
"     .+++@.+++++++++++++++@     ",
"     .@@@@@@@@@@@@@@@@@@@@@     ",
"     .####$%&&$###########@     ",
"     .###$*$$$&%##########@     ",
"     .##$*$###$&$#########@     ",
"     .##$%##=##$*#########@     ",
"     .##$%###=#$%#########@     ",
"     .##$%#####$=#########@     ",
"     .##-**###$=;==#######@     ",
"     .###-****==>;;==#####@     ",
"     .####-$$=##=>-;&=####@     ",
"     .###########==>;=####@     ",
"     .#############==#####@     ",
"     .####################@     ",
"     .####################@     ",
"     +@@@@@@@@@@@@@@@@@@@@@     ",
"                                ",
"                                ",
"   ====                         ",
"    =  = = == ==  =   =  ===    ",
"    ===  ==  =  = = = = =       ",
"    =  = =   =  = = = =  ==     ",
"    =  = =   =  =  = =     =    ",
"   ====  =    ==   = =  ===  =  ",
"                                ",
"                                "};
